<svg id="Vrstva_1" data-name="Vrstva 1" xmlns="http://www.w3.org/2000/svg" viewBox="0 0 79 44"><defs><style>.cls-1{fill:#004a93;}</style></defs><title>allianz</title><g id="logo-_-Allianz" data-name="logo-/-Allianz"><g id="Allianz"><path id="path37647" class="cls-1" d="M69.36,27.21V16.82c0-.84-.35-1.11-1.15-1.11H65.83v1.15h.26c.44,0,.62.17.62.68v9.68Zm1.41,0h2.56V19.37c0-.79-.35-1.11-1.15-1.11H70.77Zm-5.47,0v-9H63.89c-.79,0-1.15.32-1.15,1.11v7.84Zm11-5.22a8.29,8.29,0,1,1-16.58,0,8.29,8.29,0,1,1,16.58,0ZM78,22a10,10,0,0,0-19.93,0A10,10,0,1,0,78,22Z"/><path id="path37627" class="cls-1" d="M32,18.41c2.29,0,3.09.79,3.09,3.14h0v4.51q0,.71.79.71h.09v.94H33.28c-.53,0-.79-.27-.79-.85h0v-.28a3.54,3.54,0,0,1-1.15.79,3.2,3.2,0,0,1-1.68.42c-1.59,0-2.29-.83-2.29-2.57A2.6,2.6,0,0,1,29,22.51a7.09,7.09,0,0,1,1.06-.35c.71-.15,1.06-.22,2.29-.42h0v-.23c0-.81-.26-1.1-1.15-1.1a7.69,7.69,0,0,0-.79.07,7.83,7.83,0,0,0-1.68.49h0l-.26.11-.62-1.69a6.58,6.58,0,0,1,1.85-.71A9.33,9.33,0,0,1,32,18.41Zm-24.26-3c.79,0,1.15.24,1.32,1H9L12.2,27.72h-3l-.88-3H4.7l-.88,3H1l3.18-9.64a2.1,2.1,0,0,0,.26-1c0-.41-.26-.57-.79-.57H3.29v-1Zm7.32,0c.62,0,1,.31,1,.9h0V27.72H13.26V17.17c0-.48-.26-.7-.79-.7h-.18v-1Zm4.94,0c.62,0,1,.31,1,.9h0V27.72H18.2V17.17c0-.48-.26-.7-.79-.7h-.18v-1Zm5,3.08a.83.83,0,0,1,.88.91h0v8.27H23.14V20.25c0-.5-.18-.72-.71-.72h-.18v-1Zm18-.11a2.19,2.19,0,0,1,1.76.7,3.57,3.57,0,0,1,.53,2.33h0v6.26H42.54V21.89c0-.93-.18-1.2-.79-1.2a2.29,2.29,0,0,0-1.68.79h0v6.23H37.34V20.25c0-.5-.26-.72-.79-.72h-.09v-1H39.1c.53,0,.79.28.79.86h0v.49A4.46,4.46,0,0,1,43,18.43Zm10.55.08v1.89l-3.88,5.54h4.06v1.76H46.66V25.78l4-5.54H48.51c-.53,0-.79.2-.79.71h0v.19h-1V19.47c0-.68.26-1,1-1h5.82ZM32.4,23.26a7,7,0,0,0-1.68.43c-.62.24-.79.53-.79,1.29s.26.94.79.94a2.53,2.53,0,0,0,1.68-.83h0ZM6.64,17.91l-1.5,4.88H8Zm17.73-2.65c1,0,1.59.48,1.59,1.29s-.62,1.31-1.59,1.31-1.59-.49-1.59-1.31S23.31,15.25,24.37,15.25Z"/></g></g></svg>