<?xml version="1.0" encoding="utf-8"?>
<!-- Generator: Adobe Illustrator 21.0.0, SVG Export Plug-In . SVG Version: 6.00 Build 0)  -->
<svg version="1.1" id="Vrstva_1" xmlns="http://www.w3.org/2000/svg" xmlns:xlink="http://www.w3.org/1999/xlink" x="0px" y="0px"
	 width="270px" height="150px" viewBox="0 0 270 150" style="enable-background:new 0 0 270 150;" xml:space="preserve">
<style type="text/css">
	.st0{fill:#004A93;}
	.st1{fill:#213683;}
	.st2{fill:#DA2825;}
	.st3{fill:#FFFFFF;}
	.st4{fill:#E3000B;}
	.st5{fill:#004C90;}
	.st6{fill:#003366;}
	.st7{fill:#009FE3;}
	.st8{fill:#ABCC3A;}
	.st9{fill:#1A1919;}
	.st10{fill:#B12C27;}
	.st11{fill:#CD1225;}
	.st12{fill:#1755A2;}
	.st13{fill:#E30613;}
	.st14{fill:#007C34;}
	.st15{fill:#323232;}
	.st16{fill:#B13B15;}
	.st17{fill:#0066B3;}
	.st18{fill:#004F91;}
	.st19{fill:#1D1D1B;}
</style>
<g>
	<path class="st13" d="M140.9,35.9h-9.2l-11.7-15.8h11.2l5.3,9.1l5.3-9.1h11.1L140.9,35.9 M153.5,55.5c-6.2-4.8-10.3-6.7-15.1-6.7
		c-8.7,0-14,8.2-14,21.7c0,8.1,1.4,13.3,4.4,17.3c2.4,3.1,6.2,5,10,5c4.4,0,8.4-1.7,14.6-6.4v11.5c-6.5,2.4-11.4,3.3-18.8,3.3
		c-21.2,0-31.6-9.4-31.6-30.9c0-10.5,2.5-17.3,8.4-22.8c6.2-5.6,13.6-8,25.1-8c6.6,0,11.1,0.8,16.8,3.1V55.5z"/>
	<path class="st18" d="M182.4,79h4.2c7.8,0,12.1-1.1,16.4-4.2c4.6-3.3,6.9-8.3,6.9-15.6c0-7.1-2.3-12.1-6.8-15.2
		c-3.7-2.6-7.5-3.5-14.4-3.5h-27.3c0.5,0.9,0.6,1.5,0.6,3V98c0,1.3-0.2,2-0.6,3h21.9c-0.6-1.4-0.8-2.2-0.8-3V79 M182.4,70V49h1.7
		c3.7,0,5.2,2.8,5.2,10.3c0,8.3-1.2,10.6-5.3,10.6H182.4z"/>
	<path class="st18" d="M236.8,79h4.2c7.8,0,12.1-1.1,16.4-4.2c4.6-3.3,6.9-8.3,6.9-15.6c0-7.1-2.3-12.1-6.8-15.2
		c-3.7-2.6-7.5-3.5-14.4-3.5h-27.3c0.5,0.9,0.6,1.5,0.6,3V98c0,1.3-0.2,2-0.6,3h21.9c-0.6-1.4-0.8-2.2-0.8-3V79 M236.8,70V49h1.7
		c3.7,0,5.2,2.8,5.2,10.3c0,8.3-1.2,10.6-5.4,10.6H236.8z"/>
	<path class="st18" d="M81.7,12c-5.7,1.9-13.8,8.3-22.4,18.9c9.1,6.2,15,16.2,15,27.4c0,18.9-16.8,34.2-37.4,34.2
		c-2.8,0-5.5-0.3-8.1-0.8c-0.1,0.3-0.2,0.7-0.3,1c0.8-2.8-1.1,5.7-1.4,8.5h59.6c-2.1-43.5,2.4-61.9,32.8-84.8L125,12H81.7"/>
	<path class="st13" d="M37,29.6c-17.6,0-32,12.9-32,28.7C5,74.1,19.3,87,37,87c17.6,0,32-12.9,32-28.7C69,42.5,54.6,29.6,37,29.6"/>
	<g>
		<rect x="6" y="110.5" class="st13" width="259" height="3.9"/>
	</g>
	<g>
		<path class="st19" d="M12.5,137.9h-1.7L6.1,124h2.3l3.3,10.1L15,124h2.3L12.5,137.9z"/>
		<path class="st19" d="M19.4,137.9V124h2.2v13.9H19.4z"/>
		<path class="st19" d="M25.4,137.9V124h9.3v1.9h-7.1v4.1h6v1.9h-6v4.2h7.1v1.9H25.4z"/>
		<path class="st19" d="M46.6,137.9l-6.7-9.8v9.8h-2.2V124h2l6.7,9.7V124h2.2v13.9H46.6z"/>
		<path class="st19" d="M61.4,137.9l-6.7-9.8v9.8h-2.2V124h2l6.7,9.7V124h2.2v13.9H61.4z"/>
		<path class="st19" d="M75.5,137.9l-1-2.8h-5.7l-1,2.8h-2.3l5.3-13.9h1.8l5.3,13.9H75.5z M71.7,127.2l-2.3,6.2h4.4L71.7,127.2z"/>
		<path class="st19" d="M84.9,137.9V124h2.2v13.9H84.9z"/>
		<path class="st19" d="M99.8,137.9l-6.7-9.8v9.8H91V124h2l6.7,9.7V124h2.2v13.9H99.8z"/>
		<path class="st19" d="M109.5,138c-2.2,0-3.7-0.5-5.1-1.8l1.5-1.4c1.1,1,2.2,1.3,3.7,1.3c1.9,0,3-0.8,3-2.1c0-0.6-0.2-1.1-0.6-1.4
			c-0.4-0.3-0.7-0.5-1.6-0.6l-1.7-0.2c-1.2-0.2-2.1-0.5-2.7-1.1c-0.7-0.6-1.1-1.5-1.1-2.6c0-2.4,1.8-4.1,4.8-4.1
			c1.9,0,3.3,0.5,4.5,1.6l-1.4,1.3c-0.9-0.8-1.9-1.1-3.2-1.1c-1.7,0-2.6,0.9-2.6,2.2c0,0.5,0.2,1,0.5,1.3c0.4,0.3,1,0.5,1.6,0.6
			l1.6,0.2c1.3,0.2,2.1,0.5,2.7,1c0.8,0.7,1.2,1.7,1.2,2.9C114.7,136.5,112.6,138,109.5,138z"/>
		<path class="st19" d="M122.7,138c-2.9,0-5.2-1.9-5.2-4.8V124h2.2v9.1c0,1.9,1.2,3,3,3c1.8,0,3-1.1,3-3V124h2.2v9.2
			C127.9,136.1,125.7,138,122.7,138z"/>
		<path class="st19" d="M139.5,137.9l-3-5.8h-2.8v5.8h-2.2V124h5.6c2.7,0,4.5,1.7,4.5,4.1c0,2-1.3,3.3-2.9,3.7l3.3,6.1H139.5z
			 M137,125.9h-3.3v4.3h3.3c1.5,0,2.5-0.8,2.5-2.2C139.4,126.7,138.4,125.9,137,125.9z"/>
		<path class="st19" d="M153.2,137.9l-1-2.8h-5.7l-1,2.8h-2.3l5.3-13.9h1.8l5.3,13.9H153.2z M149.4,127.2l-2.3,6.2h4.5L149.4,127.2z
			"/>
		<path class="st19" d="M166.6,137.9l-6.7-9.8v9.8h-2.2V124h2l6.7,9.7V124h2.2v13.9H166.6z"/>
		<path class="st19" d="M177.1,138c-1.5,0-2.8-0.5-3.8-1.5c-1.4-1.4-1.4-2.9-1.4-5.6c0-2.7,0-4.2,1.4-5.6c1-0.9,2.3-1.5,3.8-1.5
			c1.8,0,3,0.6,4,1.6l-1.5,1.4c-0.8-0.7-1.4-1.2-2.6-1.2c-0.9,0-1.6,0.3-2.1,0.8c-0.7,0.7-0.8,1.5-0.8,4.3c0,2.8,0.1,3.6,0.8,4.3
			c0.5,0.5,1.3,0.8,2.1,0.8c1.2,0,1.8-0.5,2.6-1.2l1.5,1.4C180.1,137.4,178.9,138,177.1,138z"/>
		<path class="st19" d="M184.1,137.9V124h9.2v1.9h-7.1v4.1h6v1.9h-6v4.2h7.1v1.9H184.1z"/>
		<path class="st19" d="M210,136.4c-1,1-2.4,1.6-3.9,1.6c-1.5,0-2.8-0.5-3.8-1.5c-1.4-1.4-1.4-2.9-1.4-5.6c0-2.7,0-4.2,1.4-5.6
			c1-0.9,2.3-1.5,3.8-1.5c2,0,3.1,0.6,4.4,1.8l-1.5,1.4c-0.9-0.9-1.6-1.4-2.9-1.4c-0.9,0-1.6,0.3-2.2,0.9c-0.7,0.7-0.9,1.5-0.9,4.3
			c0,2.8,0.1,3.6,0.9,4.3c0.5,0.5,1.3,0.8,2.2,0.8c1,0,1.7-0.3,2.3-1c0.5-0.6,0.7-1.3,0.7-2.2v-0.8h-3v-1.8h5.2v2.1
			C211.3,134.3,211,135.4,210,136.4z"/>
		<path class="st19" d="M222.5,137.9l-3.1-5.8h-2.7v5.8h-2.2V124h5.6c2.7,0,4.5,1.7,4.5,4.1c0,2-1.3,3.3-2.9,3.7l3.3,6.1H222.5z
			 M219.9,125.9h-3.2v4.3h3.2c1.5,0,2.5-0.8,2.5-2.2C222.4,126.7,221.4,125.9,219.9,125.9z"/>
		<path class="st19" d="M236.4,136.5c-1,1-2.3,1.5-3.8,1.5c-1.5,0-2.8-0.5-3.8-1.5c-1.4-1.4-1.4-2.9-1.4-5.6c0-2.7,0-4.2,1.4-5.6
			c1-0.9,2.3-1.5,3.8-1.5c1.5,0,2.8,0.5,3.8,1.5c1.4,1.4,1.4,2.9,1.4,5.6C237.8,133.6,237.8,135.2,236.4,136.5z M234.7,126.7
			c-0.5-0.5-1.3-0.9-2.2-0.9c-0.9,0-1.7,0.3-2.2,0.9c-0.7,0.7-0.9,1.5-0.9,4.3c0,2.8,0.1,3.6,0.9,4.3c0.5,0.5,1.3,0.9,2.2,0.9
			c0.8,0,1.6-0.3,2.2-0.9c0.7-0.7,0.9-1.5,0.9-4.3C235.6,128.2,235.4,127.4,234.7,126.7z"/>
		<path class="st19" d="M246,138c-2.9,0-5.2-1.9-5.2-4.8V124h2.2v9.1c0,1.9,1.2,3,3,3c1.8,0,3-1.1,3-3V124h2.2v9.2
			C251.2,136.1,249,138,246,138z"/>
		<path class="st19" d="M260.3,132.4H257v5.4h-2.2V124h5.5c2.8,0,4.6,1.8,4.6,4.2C265,130.7,263.2,132.4,260.3,132.4z M260.2,125.9
			H257v4.6h3.2c1.5,0,2.6-0.8,2.6-2.3C262.8,126.8,261.7,125.9,260.2,125.9z"/>
	</g>
</g>
</svg>
