<svg version="1.1" id="Vrstva_1" xmlns="http://www.w3.org/2000/svg" x="0" y="0" width="145" height="47" viewBox="0 0 145 47" xml:space="preserve"><g fill-rule="evenodd" clip-rule="evenodd"><path fill="#0099CD" d="M26.456 18.316c4.879 0 8.837-3.958 8.837-8.839A8.835 8.835 0 0026.481.641h-.05a8.837 8.837 0 00-8.812 8.836c0 4.881 3.957 8.839 8.837 8.839z"/><path fill="#0099CD" d="M32.974 16.627c-1.683 1.825-4.653 3.65-8.462 3.65-2.955 0-5.5-1.147-7.119-2.426C7.745 18.864.57 20.3.57 20.3v3.907l51.131-.003.006-8.059c0 .001-8.725-.052-18.733.482z"/><path fill="#036" d="M11.87 32.118c0 3.342 2.744 3.918 4.746 4.337 1.083.227 1.936.405 1.936.921 0 .535-1.039.726-2.011.726-1.477 0-3.046-.31-4.302-.849l-.241-.103v3.796l.133.033c1.845.438 3.426.623 5.285.623 1.913 0 6.364-.446 6.364-4.566 0-3.336-2.76-3.881-4.776-4.28-1.066-.211-1.907-.378-1.907-.864 0-.606.972-.69 1.922-.69 1.254 0 2.537.224 3.709.647l.232.083v-3.746l-.137-.03a21.05 21.05 0 00-4.242-.454c-4.453-.001-6.711 1.485-6.711 4.416zm17.755 2.532c0-2.288.597-3.449 1.775-3.449 1.595 0 1.808 1.972 1.83 3.453-.021 1.667-.181 3.447-1.83 3.447-1.194.001-1.775-1.128-1.775-3.451zm-5.446 0c0 4.484 2.564 6.952 7.22 6.952 4.691 0 7.275-2.468 7.275-6.952 0-4.416-2.652-6.949-7.275-6.949-4.587 0-7.22 2.533-7.22 6.949zm21.445-3.899c.997 0 1.503.37 1.503 1.104 0 .896-.876 1.084-1.612 1.084h-1.046v-2.188h1.155zm-.019 5.239c1.156 0 1.648.346 1.648 1.16 0 1.092-1.29 1.178-1.685 1.178h-1.101V35.99h1.138zm-5.901-8.063h-.173v13.451h7.549c2.804 0 5.398-.462 5.398-3.816 0-1.208-.91-2.571-2.457-3.029 1.507-.554 2.219-1.58 2.219-3.203 0-2.194-1.613-3.402-4.542-3.402h-7.994zM3.985 25.53l-1.521 1.396.113.098c.041.034.891.745 2.279 1.122-3.05.905-4.854 3.232-4.854 6.318 0 4.378 2.967 7.097 7.744 7.097 1.573 0 3.102-.405 3.534-.53l.095-.026v-3.763l-.177.063c-.952.341-1.777.501-2.596.501-2.096 0-3.346-1.222-3.346-3.267 0-1.946 1.344-3.152 3.509-3.152.819 0 1.637.231 2.4.48l.172.056v-3.746l-.367-.068c-.656-.121-1.207-.223-1.791-.291a6.467 6.467 0 002.099-1.475l.1-.106-.583-.443-.082.088c-.011.013-1.101 1.183-3.125 1.16-2.147-.02-3.4-1.485-3.411-1.497l-.09-.107-.102.092zm59.806 10.324c2.094 0 4.515-1.135 4.515-4.362 0-3.634-2.934-3.654-4.617-3.654h-3.326c-.225 0-.265.039-.265.264v13.05c0 .224.04.266.265.266h1.909c.226 0 .267-.042.267-.266v-5.297h1.252v-.001zm-.246-6.21c1.067 0 2.318.062 2.318 1.99 0 2.192-1.272 2.414-2.523 2.414h-.8v-4.404h1.005zm9.603 12.117c2.648 0 4.288-1.989 4.288-5.196 0-3.205-1.662-5.196-4.288-5.196-2.647 0-4.288 1.991-4.288 5.196 0 3.206 1.641 5.196 4.288 5.196zm0-8.686c1.601 0 1.847 1.664 1.847 3.489 0 1.848-.227 3.492-1.847 3.492s-1.846-1.666-1.846-3.492c.001-1.825.246-3.489 1.846-3.489zm6.013 13.111c-.944 0-1.887-.183-2.032-.404-.041-.062-.041-.103-.02-.162l.41-1.441c.041-.062.103-.062.164-.041.082.02.185.06.308.102.226.062.533.142.883.142 1.229 0 1.354-1.178 1.354-2.721v-8.382h-1.765c-.103 0-.123-.021-.123-.122V31.84c0-.103.021-.124.123-.124h3.92c.104 0 .123.021.123.124v9.863c0 2.859-.491 4.483-3.345 4.483m.636-17.638c0-.831.678-1.501 1.54-1.501.84 0 1.518.648 1.518 1.501s-.678 1.523-1.518 1.523c-.862 0-1.54-.671-1.54-1.523zm6.567 12.869c-.104 0-.123-.022-.123-.123v-8.017h-1.744c-.104 0-.123-.021-.123-.122v-1.317c0-.101.02-.123.123-.123h3.897c.103 0 .123.022.123.123v9.456c0 .101-.021.123-.123.123h-2.03zm-.534-12.868c0-.832.679-1.5 1.538-1.5.843 0 1.519.646 1.519 1.5a1.51 1.51 0 01-1.519 1.522 1.517 1.517 0 01-1.538-1.522zm11.12-.103l-2.317 1.807c-.041.02-.144.121-.185.121-.04 0-.163-.102-.184-.121l-2.319-1.807c-.041-.039-.103-.081-.143-.121-.021-.02-.043-.02-.043-.04 0-.04.083-.164.104-.202l.391-.65c.081-.142.101-.184.144-.184.061 0 .163.08.204.103l1.847 1.035 1.847-1.035c.041-.022.145-.103.205-.103.042 0 .062.042.144.184l.391.65c.021.038.102.162.102.202 0 .021-.019.021-.041.04-.042.04-.105.082-.147.121zm-5.989 12.299a.344.344 0 01-.084-.101c-.02-.04.021-.121.041-.204.022-.061.043-.078.043-.102l.41-1.032c.021-.042.039-.083.081-.083 0 0 .063.021.083.021.308.143.512.202.842.345.553.225 1.293.467 1.969.467.718 0 1.416-.303 1.416-1.179 0-.709-.615-1.034-1.272-1.298-.738-.284-1.518-.469-2.175-.914-.574-.365-1.128-1.035-1.128-2.152 0-1.745 1.334-3.146 3.466-3.146 1.171 0 2.442.387 2.977.712.083.042.062.121.041.182-.021.04-.041.122-.062.164-.227.527-.368.811-.473 1.096-.019.039-.081.039-.081.039-.041-.02-.021 0-.081-.02-.721-.285-1.479-.466-2.237-.466-.801 0-1.518.304-1.518 1.136 0 .673.572.976 1.21 1.197.327.122.697.223 1.065.366.37.142.759.306 1.108.547.759.487 1.293 1.217 1.293 2.334 0 1.768-1.252 3.105-3.345 3.105-1.438.002-2.81-.465-3.589-1.014zm14.281-10.146c-.041.041-.041.102-.082.142-.021 0-.021.02-.042.02-.04 0-.082-.04-.144-.04l-.616-.204c-.061-.019-.143-.039-.143-.1-.02-.042-.02-.103 0-.183l1.026-3.309c.04-.163.083-.184.227-.184h1.621c.08 0 .144 0 .163.08.021.043-.04.144-.083.204l-1.927 3.574zm-4.309 7.407c0 1.909.021 3.755 2.482 3.755 1.293 0 2.382-.264 2.669-.589.04-.039.04-.081.02-.142l-.391-1.524c-.02-.059-.062-.118-.244-.079a5.973 5.973 0 01-.33.121 2.989 2.989 0 01-1.065.206c-.802 0-.862-.651-.862-1.403v-5.073h2.195c.144 0 .163-.021.205-.183l.268-1.198c.02-.059.02-.059.02-.102 0-.101-.102-.08-.186-.08h-2.502v-2.982c0-.123 0-.145-.04-.184-.043-.041-.187 0-.247 0l-1.805.243c-.166.021-.187.061-.187.202v2.721h-1.621c-.103 0-.124.021-.124.123v1.317c0 .101.021.122.124.122h1.621v4.729zm10.609 3.755c2.646 0 4.288-1.989 4.288-5.196 0-3.205-1.662-5.196-4.288-5.196-2.648 0-4.289 1.991-4.289 5.196 0 3.206 1.641 5.196 4.289 5.196zm0-8.686c1.6 0 1.847 1.664 1.847 3.489 0 1.848-.226 3.492-1.847 3.492s-1.848-1.666-1.848-3.492c0-1.825.247-3.489 1.848-3.489zm10.362 8.361c-.041.143-.062.162-.227.162h-1.683c-.164 0-.184-.02-.225-.162l-3.284-9.355c0-.04-.062-.163-.042-.242.021-.083.082-.083.268-.103l1.684-.183c.082 0 .226-.02.266-.02.104 0 .165.161.187.281l1.251 4.568c.226.812.595 2.191.779 3.064h.123c.205-.853.575-2.273.82-3.064l1.396-4.568a.725.725 0 01.083-.222c.04-.082.164-.06.142-.06.042 0 .145.02.206.02l1.395.183c.186.02.287.02.287.103-.019.121-.062.202-.062.242l-3.364 9.356zm10.671-.019c-.104 0-.123-.022-.123-.123v-6.25c0-.732-.082-1.868-1.313-1.868-.923 0-1.642.629-1.971.914v7.204c0 .101-.02.123-.122.123h-2.031c-.104 0-.125-.022-.125-.123v-6.127c0-1.441-.103-2.133-.205-2.519-.04-.202-.103-.323-.144-.425-.042-.123-.02-.184-.02-.184 0-.041.04-.081.082-.102l1.56-.508c.123-.043.267-.101.328-.021.124.163.268.486.492 1.501.351-.304.532-.465.719-.627.738-.59 1.54-.916 2.522-.916 1.068 0 2.506.47 2.506 2.803v7.123c0 .101-.021.123-.124.123h-2.031zm11.841-.346c.04-.019.079-.058.081-.079v-.009c-.002-.058-.041-.116-.081-.196-.062-.122-.103-.244-.185-.425-.123-.387-.267-.975-.267-1.972v-3.915c0-2.029-.882-3.107-3.366-3.107-1.498 0-3.449.508-3.449.792 0 .063.042.142.062.203l.411 1.238c0 .021.04.061.083.061.061 0 .12-.019.244-.061.164-.061.371-.142.596-.223.473-.143 1.067-.304 1.662-.304 1.418 0 1.622.709 1.622 1.664v.791c-1.847 0-5.355.02-5.355 3.267 0 1.827 1.128 2.964 2.914 2.964a3.25 3.25 0 001.661-.425c.204-.123.368-.265.513-.389.166-.14.268-.262.598-.567.143.731.367 1.381.532 1.381 0 0 .02-.021.062-.021a.744.744 0 00.145-.061l1.517-.607zm-2.586-4.201v2.456c-.309.323-.883.871-1.703.871-.882 0-1.519-.668-1.519-1.542 0-.993.677-1.461 1.375-1.645.349-.102.696-.122 1.003-.141h.844z"/></g></svg>