<svg viewBox="0 0 90 50" fill="none" xmlns="http://www.w3.org/2000/svg">
<path d="M16.4225 22.1297C19.4521 22.1297 21.9081 19.6382 21.9081 16.5649C21.9081 13.4915 19.4521 11 16.4225 11C13.3928 11 10.9367 13.4915 10.9367 16.5649C10.9367 19.6382 13.3928 22.1297 16.4225 22.1297Z" fill="#0299CD"/>
<path fill-rule="evenodd" clip-rule="evenodd" d="M20.4688 21.0674C19.4235 22.2168 17.5804 23.3663 15.2157 23.3663C13.3811 23.3663 11.8011 22.6431 10.7963 21.8387C4.807 22.4764 0.353134 23.3799 0.353134 23.3799V25.8405L32.0948 25.8369L32.0979 20.7642C32.0979 20.7642 26.6822 20.7301 20.4688 21.0674Z" fill="#0299CD"/>
<path fill-rule="evenodd" clip-rule="evenodd" d="M7.36772 30.8216C7.36772 32.9265 9.07071 33.2886 10.3143 33.5531C10.9859 33.6961 11.5165 33.8088 11.5165 34.1324C11.5165 34.4702 10.8712 34.5908 10.2673 34.5908C9.35023 34.5908 8.37681 34.3955 7.59658 34.0556L7.44666 33.9903V36.382L7.52934 36.402C8.67497 36.6777 9.65623 36.7948 10.8099 36.7948C11.9977 36.7948 14.7609 36.5148 14.7609 33.9193C14.7609 31.819 13.0472 31.4749 11.7959 31.2237C11.1345 31.0906 10.6121 30.9858 10.6121 30.6796C10.6121 30.2966 11.215 30.2447 11.8047 30.2447C12.5836 30.2447 13.3803 30.3854 14.1081 30.6521L14.252 30.705V28.3451L14.1668 28.3266C13.3078 28.142 12.3726 28.0405 11.5331 28.0405C8.76928 28.0405 7.36772 28.9762 7.36772 30.8216Z" fill="#003366"/>
<path fill-rule="evenodd" clip-rule="evenodd" d="M15.0092 32.4174C15.0092 35.2405 16.6011 36.7947 19.4916 36.7947C22.4037 36.7947 24.0077 35.2404 24.0077 32.4174C24.0077 29.6358 22.3619 28.0405 19.4916 28.0405C16.6431 28.0405 15.0092 29.6358 15.0092 32.4174ZM18.3893 32.4174C18.3893 30.9756 18.7601 30.2446 19.4916 30.2446C20.4814 30.2446 20.6141 31.486 20.6276 32.4193C20.6144 33.4683 20.5145 34.5908 19.4916 34.5908C18.7498 34.5908 18.3893 33.8798 18.3893 32.4174Z" fill="#003366"/>
<path fill-rule="evenodd" clip-rule="evenodd" d="M24.6477 28.1823H24.54V36.6533H29.2256C30.9669 36.6533 32.5776 36.3621 32.5776 34.2505C32.5776 33.4895 32.0125 32.6311 31.0526 32.3431C31.9879 31.9939 32.4306 31.3472 32.4306 30.3251C32.4306 28.9436 31.4292 28.1825 29.6102 28.1825L24.6477 28.1823ZM28.3101 33.2598C29.0274 33.2598 29.3332 33.4782 29.3332 33.9903C29.3332 34.6792 28.5329 34.7323 28.2876 34.7323C28.2876 34.7323 27.7642 34.7323 27.6038 34.7323C27.6038 34.5548 27.6038 33.4374 27.6038 33.2598C27.7657 33.2598 28.3101 33.2598 28.3101 33.2598ZM28.3213 29.9611C28.9403 29.9611 29.254 30.195 29.254 30.6561C29.254 31.2206 28.7102 31.3391 28.2536 31.3391C28.2536 31.3391 27.7615 31.3391 27.6036 31.3391C27.6036 31.1638 27.6036 30.1364 27.6036 29.9611C27.7661 29.9611 28.3213 29.9611 28.3213 29.9611Z" fill="#003366"/>
<path fill-rule="evenodd" clip-rule="evenodd" d="M2.47294 26.673L1.52878 27.5522L1.59923 27.6135C1.62376 27.6345 2.15228 28.0825 3.01367 28.3212C1.12044 28.8902 0 30.3556 0 32.2996C0 35.0565 1.84182 36.7691 4.80722 36.7691C5.78351 36.7691 6.73284 36.5135 7.00059 36.435L7.05986 36.4177V34.0495L6.95006 34.0895C6.35905 34.3039 5.84694 34.4038 5.33854 34.4038C4.03813 34.4038 3.26152 33.635 3.26152 32.3467C3.26152 31.122 4.09625 30.3612 5.44024 30.3612C5.94884 30.3612 6.45647 30.5067 6.92949 30.6644L7.03716 30.7002V28.3405L6.80921 28.2974C6.40233 28.2201 6.06014 28.1558 5.69731 28.1146C6.35248 27.8203 6.78645 27.4182 7.00039 27.1853L7.06211 27.1177L6.69992 26.8385L6.64914 26.8947C6.64232 26.902 5.96539 27.6387 4.70956 27.6259C3.37654 27.6122 2.59927 26.6904 2.59166 26.6811L2.53633 26.6146L2.47294 26.673Z" fill="#003366"/>
<path fill-rule="evenodd" clip-rule="evenodd" d="M39.4471 29.2643C40.1097 29.2643 40.8867 29.3028 40.8867 30.5169C40.8867 31.8971 40.0968 32.0379 39.3198 32.0379H38.823V29.2643H39.4471ZM39.6001 33.1754C40.8995 33.1754 42.4027 32.4595 42.4027 30.4274C42.4027 28.1393 40.5809 28.1266 39.5364 28.1266H37.4727C37.3327 28.1266 37.3071 28.1523 37.3071 28.2927V36.5112C37.3071 36.6519 37.3327 36.6775 37.4727 36.6775H38.6574C38.7975 36.6775 38.823 36.6519 38.823 36.5112V33.1754H39.6001Z" fill="#003366"/>
<path fill-rule="evenodd" clip-rule="evenodd" d="M45.4089 31.4244C46.4024 31.4244 46.5553 32.4725 46.5553 33.6229C46.5553 34.7859 46.4151 35.8213 45.4089 35.8213C44.4025 35.8213 44.2625 34.7732 44.2625 33.6229C44.2625 32.4725 44.4151 31.4244 45.4089 31.4244ZM45.4089 36.8949C47.0521 36.8949 48.0712 35.6425 48.0712 33.6229C48.0712 31.6035 47.0393 30.3508 45.4089 30.3508C43.7654 30.3508 42.7465 31.6034 42.7465 33.6229C42.7464 35.6424 43.7654 36.8949 45.4089 36.8949Z" fill="#003366"/>
<path fill-rule="evenodd" clip-rule="evenodd" d="M49.5358 28.5741C49.5358 28.0501 49.9562 27.6281 50.4913 27.6281C51.0134 27.6281 51.4338 28.0372 51.4338 28.5741C51.4338 29.1109 51.0134 29.5327 50.4913 29.5327C49.9562 29.5327 49.5358 29.1109 49.5358 28.5741ZM47.8799 39.4256C47.8543 39.3872 47.8543 39.3616 47.867 39.3234L48.1218 38.416C48.1474 38.3776 48.1854 38.3776 48.2237 38.3905C48.2747 38.403 48.3383 38.4287 48.4149 38.4544C48.5549 38.4926 48.7461 38.5438 48.9627 38.5438C49.727 38.5438 49.8034 37.8025 49.8034 36.831V31.5522H48.7079C48.6443 31.5522 48.6315 31.5396 48.6315 31.4756V30.6447C48.6315 30.5808 48.6442 30.5679 48.7079 30.5679H51.1411C51.2047 30.5679 51.2175 30.5808 51.2175 30.6447V36.8567C51.2175 38.6587 50.9117 39.6812 49.1411 39.6812C48.5551 39.6812 47.969 39.5662 47.8799 39.4256Z" fill="#003366"/>
<path fill-rule="evenodd" clip-rule="evenodd" d="M53.2811 28.5741C53.2811 28.0501 53.7016 27.6281 54.2364 27.6281C54.7588 27.6281 55.1791 28.0372 55.1791 28.5741C55.1791 29.1109 54.7588 29.5327 54.2364 29.5327C53.7016 29.5327 53.2811 29.1109 53.2811 28.5741ZM53.6124 36.6776C53.5487 36.6776 53.5359 36.6649 53.5359 36.601V31.5522H52.4531C52.3893 31.5522 52.3765 31.5396 52.3765 31.4756V30.6447C52.3765 30.5808 52.3892 30.5679 52.4531 30.5679H54.8733C54.9369 30.5679 54.9499 30.5808 54.9499 30.6447V36.601C54.9499 36.6649 54.937 36.6776 54.8733 36.6776H53.6124Z" fill="#003366"/>
<path fill-rule="evenodd" clip-rule="evenodd" d="M56.4657 36.2558C56.4403 36.2303 56.4276 36.2177 56.4148 36.1919C56.4021 36.1663 56.4276 36.1153 56.4404 36.064C56.4531 36.0258 56.4658 36.013 56.4658 36.0001L56.7207 35.3484C56.7334 35.3228 56.7461 35.2971 56.7716 35.2971C56.7716 35.2971 56.8099 35.31 56.8226 35.31C57.0135 35.3994 57.1411 35.4378 57.3447 35.5273C57.6888 35.6679 58.1473 35.8213 58.5678 35.8213C59.0135 35.8213 59.4467 35.6295 59.4467 35.08C59.4467 34.6325 59.0646 34.4282 58.657 34.262C58.1982 34.0832 57.7142 33.968 57.3066 33.6868C56.9498 33.4567 56.606 33.0348 56.606 32.3318C56.606 31.2325 57.4339 30.3507 58.7587 30.3507C59.4849 30.3507 60.2746 30.5935 60.6058 30.7981C60.6568 30.8237 60.6441 30.8749 60.6315 30.9131C60.6188 30.9389 60.6058 30.9899 60.5931 31.0154C60.4531 31.3478 60.3639 31.5266 60.3003 31.7057C60.2876 31.7313 60.2493 31.7313 60.2493 31.7313C60.2236 31.7184 60.2367 31.7313 60.1984 31.7184C59.7525 31.5396 59.2812 31.4244 58.8098 31.4244C58.3129 31.4244 57.8672 31.6162 57.8672 32.1402C57.8672 32.562 58.224 32.7537 58.6188 32.8944C58.8226 32.971 59.0519 33.0348 59.2812 33.1245C59.5104 33.2139 59.7525 33.3162 59.9692 33.4696C60.4404 33.7762 60.7718 34.2364 60.7718 34.9395C60.7718 36.0515 59.9946 36.8949 58.6952 36.8949C57.8034 36.8949 56.9498 36.6011 56.4657 36.2558ZM60.1854 28.5104L58.7458 29.6478C58.7204 29.6607 58.6568 29.7247 58.6313 29.7247C58.6059 29.7247 58.5293 29.6607 58.5166 29.6478L57.0773 28.5104C57.0516 28.4846 57.0135 28.4591 56.988 28.4336C56.9753 28.4207 56.9623 28.4207 56.9623 28.408C56.9623 28.3824 57.0133 28.3058 57.0262 28.2802L57.2681 27.8712C57.3191 27.7815 57.3317 27.756 57.3574 27.756C57.3954 27.756 57.4593 27.8072 57.4847 27.8199L58.6311 28.4718L59.7776 27.8199C59.8032 27.8073 59.8668 27.756 59.9052 27.756C59.9305 27.756 59.9432 27.7815 59.9942 27.8712L60.2363 28.2802C60.249 28.3058 60.2999 28.3824 60.2999 28.408C60.2999 28.4206 60.2873 28.4206 60.2743 28.4336C60.2491 28.4591 60.2108 28.4846 60.1854 28.5104Z" fill="#003366"/>
<path fill-rule="evenodd" clip-rule="evenodd" d="M62.6568 34.5303V31.5521H61.6503C61.5867 31.5521 61.574 31.5395 61.574 31.4755V30.6446C61.574 30.5807 61.5866 30.5678 61.6503 30.5678H62.6568V28.8552C62.6568 28.7658 62.6695 28.74 62.7714 28.7273L63.8925 28.574C63.9305 28.574 64.0198 28.5482 64.0454 28.574C64.0707 28.5996 64.0707 28.6122 64.0707 28.689V30.5678H65.6248C65.6762 30.5678 65.7399 30.5552 65.7399 30.6191C65.7399 30.6446 65.7399 30.6446 65.7264 30.6831L65.5611 31.4371C65.5354 31.5393 65.5232 31.5521 65.4339 31.5521H64.0707V34.7476C64.0707 35.2205 64.1089 35.6295 64.6059 35.6295C64.8733 35.6295 65.1028 35.5655 65.268 35.5017C65.3445 35.4761 65.4081 35.4507 65.4718 35.4249C65.5862 35.3993 65.6119 35.4377 65.6248 35.4761L65.8665 36.4348C65.8794 36.4732 65.8794 36.4987 65.8543 36.5242C65.6756 36.7288 65.0006 36.8948 64.1979 36.8948C62.6695 36.8948 62.6568 35.7318 62.6568 34.5303ZM65.3316 29.865C65.3066 29.8906 65.3066 29.929 65.2809 29.9544C65.268 29.9544 65.268 29.9672 65.2558 29.9672C65.2301 29.9672 65.2044 29.9417 65.1664 29.9417L64.7839 29.8138C64.746 29.801 64.6946 29.7883 64.6946 29.7499C64.6824 29.7244 64.6824 29.6859 64.6946 29.6346L65.3316 27.5515C65.3574 27.4493 65.3831 27.4362 65.4718 27.4362H66.4785C66.5293 27.4362 66.5679 27.4362 66.5801 27.4875C66.5929 27.5131 66.555 27.577 66.5293 27.6153L65.3316 29.865Z" fill="#003366"/>
<path fill-rule="evenodd" clip-rule="evenodd" d="M69.2428 31.4244C70.236 31.4244 70.389 32.4725 70.389 33.6229C70.389 34.7859 70.2489 35.8213 69.2428 35.8213C68.2361 35.8213 68.0959 34.7732 68.0959 33.6229C68.0959 32.4725 68.2489 31.4244 69.2428 31.4244ZM69.2428 36.8949C70.8859 36.8949 71.9049 35.6425 71.9049 33.6229C71.9049 31.6035 70.8737 30.3508 69.2428 30.3508C67.599 30.3508 66.5801 31.6034 66.5801 33.6229C66.5801 35.6424 67.599 36.8949 69.2428 36.8949Z" fill="#003366"/>
<path fill-rule="evenodd" clip-rule="evenodd" d="M75.6759 36.6905C75.6501 36.7799 75.6373 36.7928 75.5357 36.7928H74.4904C74.3889 36.7928 74.376 36.7799 74.3503 36.6905L72.3124 30.7982C72.3124 30.7726 72.2745 30.696 72.2867 30.6448C72.2996 30.5936 72.3381 30.5936 72.4526 30.5809L73.4972 30.4656C73.548 30.4656 73.6367 30.453 73.6624 30.453C73.7267 30.453 73.7646 30.5552 73.7775 30.6318L74.5547 33.5078C74.6949 34.019 74.9237 34.888 75.0388 35.4377H75.1146C75.2426 34.9008 75.4721 34.0061 75.6244 33.5078L76.491 30.6318C76.5039 30.5809 76.5167 30.5296 76.5418 30.4915C76.5675 30.4402 76.644 30.453 76.6311 30.453C76.6562 30.453 76.7199 30.4656 76.7584 30.4656L77.6244 30.5809C77.7388 30.5935 77.8024 30.5935 77.8024 30.6448C77.7902 30.7214 77.7645 30.7726 77.7645 30.7982L75.6759 36.6905Z" fill="#003366"/>
<path fill-rule="evenodd" clip-rule="evenodd" d="M82.2992 36.6777C82.2356 36.6777 82.2227 36.6652 82.2227 36.6011V32.6644C82.2227 32.2042 82.1719 31.4884 81.4076 31.4884C80.8341 31.4884 80.3886 31.8847 80.1849 32.0636V36.6011C80.1849 36.6652 80.172 36.6777 80.1084 36.6777H78.8471C78.7834 36.6777 78.7706 36.6652 78.7706 36.6011V32.7411C78.7706 31.8334 78.7069 31.3989 78.6433 31.1562C78.6176 31.0284 78.5796 30.9515 78.5546 30.8877C78.5289 30.8111 78.5417 30.7727 78.5417 30.7727C78.5417 30.7472 78.5668 30.7215 78.5925 30.7088L79.5606 30.3892C79.6371 30.3636 79.7259 30.3252 79.7644 30.3763C79.8409 30.4786 79.9296 30.6832 80.0698 31.3223C80.2871 31.1305 80.4015 31.0282 80.5159 30.926C80.9743 30.5554 81.4712 30.3508 82.0826 30.3508C82.7447 30.3508 83.6364 30.6448 83.6364 32.1146V36.6009C83.6364 36.6649 83.6241 36.6775 83.5605 36.6775L82.2992 36.6777Z" fill="#003366"/>
<path fill-rule="evenodd" clip-rule="evenodd" d="M88.0451 33.8146V35.361C87.8535 35.5656 87.4967 35.9106 86.9869 35.9106C86.4399 35.9106 86.0445 35.4888 86.0445 34.9394C86.0445 34.3129 86.4656 34.019 86.8982 33.904C87.1142 33.84 87.3309 33.8274 87.5224 33.8146C87.7134 33.8146 87.8664 33.8146 88.0451 33.8146ZM89.6496 36.4603C89.6747 36.4474 89.7004 36.4219 89.7004 36.4093C89.7004 36.3708 89.6747 36.3325 89.6496 36.2814C89.6111 36.2046 89.586 36.1278 89.5352 36.013C89.4587 35.7702 89.3694 35.3995 89.3694 34.7732V32.3064C89.3694 31.0282 88.8216 30.3508 87.2801 30.3508C86.3499 30.3508 85.14 30.6704 85.14 30.8492C85.14 30.8876 85.1657 30.9388 85.1786 30.9771L85.4331 31.7567C85.4331 31.7696 85.4589 31.7952 85.4839 31.7952C85.5225 31.7952 85.5611 31.7824 85.6369 31.7567C85.7391 31.7184 85.8664 31.6673 86.0066 31.6161C86.2991 31.5266 86.6687 31.4244 87.0384 31.4244C87.9171 31.4244 88.0451 31.8718 88.0451 32.4725V32.971C86.8982 32.971 84.7196 32.9838 84.7196 35.0289C84.7196 36.1792 85.4203 36.8949 86.5292 36.8949C86.9869 36.8949 87.318 36.7671 87.5604 36.6266C87.6876 36.5498 87.7899 36.4604 87.8786 36.3836C87.9808 36.2942 88.0444 36.2176 88.2482 36.026C88.3376 36.486 88.4777 36.8949 88.5799 36.8949C88.5799 36.8949 88.5921 36.8822 88.6179 36.8822C88.6558 36.8694 88.6815 36.8567 88.7072 36.8439L89.6496 36.4603Z" fill="#003366"/>
</svg>
