<svg viewBox="0 0 269 150" fill="none" xmlns="http://www.w3.org/2000/svg">
<g clip-path="url(#clip0_10267_42809)">
<path d="M25.2849 3C34.0406 27.2457 46.9694 33.6684 59.6528 33.6684C68.3266 33.6684 74.4637 30.6177 74.4637 30.6177L74.8729 31.0191L16.8567 82.7218V61.3663L47.8696 34.9529C10.3104 30.8586 0 3 0 3H25.2849Z" fill="#C4DE00"/>
<path d="M252.443 88.3045V68.7492H264.04L267.478 61.2473H252.443V48.6041H243.508V88.3045C243.508 100.611 250.553 108.534 266.619 104.235V96.7334C256.996 99.1776 252.443 97.155 252.443 88.3045Z" fill="#004033"/>
<path d="M113.694 61.2466H104.76V104.656H113.694V61.2466Z" fill="#004033"/>
<path d="M109.23 43.209C106.223 43.209 103.904 45.485 103.904 48.4351C103.904 51.301 106.223 53.6612 109.23 53.6612C112.238 53.6612 114.557 51.301 114.557 48.4351C114.557 45.485 112.238 43.209 109.23 43.209Z" fill="#004033"/>
<path d="M147.802 60.4039C139.812 59.6455 133.883 63.2699 131.306 72.1204V61.2467H122.371V104.656H131.306V82.4877C131.306 74.3962 136.204 68.833 145.224 68.833H147.802V60.4039Z" fill="#004033"/>
<path d="M217.736 105.499C228.388 105.499 236.807 99.0085 237.838 89.3998H228.388C227.615 94.9625 223.148 98.0816 217.736 98.0816C210.691 98.0816 205.021 92.097 205.021 82.9934C205.021 73.8902 210.691 67.8213 217.736 67.8213C223.148 67.8213 227.615 70.9399 228.388 76.5031H237.838C236.807 66.8941 228.388 60.4038 217.736 60.4038C205.021 60.4038 195.656 69.5072 195.656 82.9934C195.656 96.4798 205.021 105.499 217.736 105.499Z" fill="#004033"/>
<path d="M181.91 91.4225C180.192 95.637 176.068 98.2498 169.968 98.2498C163.095 98.2498 157.425 93.6141 156.823 85.4379H191.016C191.188 84.5107 191.274 83.8364 191.274 82.9934C191.274 69.5072 182.511 60.4038 169.968 60.4038C157.253 60.4038 147.889 69.5072 147.889 82.9934C147.889 96.4798 157.253 105.499 169.968 105.499C180.879 105.499 188.439 99.7672 190.501 91.4225H181.91ZM169.968 67.6526C176.412 67.6526 181.481 71.6988 182.34 78.7791H156.909C158.026 71.6988 163.611 67.6526 169.968 67.6526Z" fill="#004033"/>
<path d="M96.084 104.656V44.389H87.1487V69.0859C83.9696 63.6913 78.8155 60.4039 72.3723 60.4039C59.9149 60.4039 50.7227 69.5073 50.7227 82.9935C50.7227 96.4799 59.2279 105.499 70.8252 105.499C78.2145 105.499 83.8846 101.79 87.1487 95.89V104.656H96.084ZM73.5753 98.0817C65.8431 98.0817 60.0869 92.0971 60.0869 82.9935C60.0869 73.8903 65.8431 67.8214 73.5753 67.8214C81.3926 67.8214 87.1487 73.8903 87.1487 82.9935C87.1487 92.0971 81.3926 98.0817 73.5753 98.0817Z" fill="#004033"/>
<path d="M105.89 121.576C102.845 121.576 100.508 123.105 99.1623 125.537V121.924H95.4805V146.763H99.1623V136.584C100.473 138.808 102.597 140.162 105.253 140.162C110.388 140.162 114.176 136.445 114.176 130.887C114.176 125.328 110.671 121.576 105.89 121.576ZM104.758 137.105C101.535 137.105 99.1623 134.639 99.1623 130.887C99.1623 127.135 101.535 124.633 104.758 124.633C107.944 124.633 110.316 127.135 110.316 130.887C110.316 134.639 107.944 137.105 104.758 137.105Z" fill="#004033"/>
<path d="M139.737 141.135C139.737 143.845 138.144 144.193 136.02 143.671V146.763C141.118 147.806 143.42 145.304 143.42 141.309V121.924H139.737V141.135Z" fill="#004033"/>
<path d="M126.424 121.576C120.936 121.576 117.006 125.328 117.006 130.887C117.006 136.445 120.936 140.162 126.424 140.162C131.913 140.162 135.843 136.445 135.843 130.887C135.843 125.328 131.913 121.576 126.424 121.576ZM126.424 137.105C123.238 137.105 120.866 134.639 120.866 130.887C120.866 127.135 123.238 124.633 126.424 124.633C129.647 124.633 132.02 127.135 132.02 130.887C132.02 134.639 129.647 137.105 126.424 137.105Z" fill="#004033"/>
<path d="M262.323 125.154C261.014 122.931 258.889 121.576 256.234 121.576C251.099 121.576 247.311 125.328 247.311 130.887C247.311 136.445 250.816 140.162 255.596 140.162C258.641 140.162 260.978 138.634 262.323 136.202V139.815H266.006V121.924H262.323V125.154ZM256.729 137.105C253.542 137.105 251.169 134.639 251.169 130.887C251.169 127.135 253.542 124.633 256.729 124.633C259.951 124.633 262.323 127.135 262.323 130.887C262.323 134.639 259.951 137.105 256.729 137.105Z" fill="#004033"/>
<path d="M169.377 114.976H166.225L163.358 118.172L160.49 114.976H157.268L161.092 120.013H165.553L169.377 114.976Z" fill="#004033"/>
<path d="M181.238 114.107L180.529 120.083H183.114L184.885 114.107H181.238Z" fill="#004033"/>
<path d="M183.714 125.016L185.131 121.924H178.935V116.713H175.252V133.076C175.252 138.148 178.156 141.414 184.777 139.642V136.55C180.812 137.557 178.935 136.724 178.935 133.076V125.016H183.714Z" fill="#004033"/>
<path d="M237.218 121.576C234.632 121.576 232.685 122.722 231.517 124.911V121.924H227.834V139.815H231.517V128.941C231.517 126.301 233.251 124.633 235.801 124.633C238.457 124.633 240.051 126.266 240.051 129.532V139.815H243.733V129.115C243.733 124.147 241.042 121.576 237.218 121.576Z" fill="#004033"/>
<path d="M216.079 136.55L210.909 121.924H206.943L213.671 139.815H218.274L225.002 121.924H221.213L216.079 136.55Z" fill="#004033"/>
<path d="M141.579 114.49C140.339 114.49 139.383 115.427 139.383 116.643C139.383 117.825 140.339 118.797 141.579 118.797C142.818 118.797 143.774 117.825 143.774 116.643C143.774 115.427 142.818 114.49 141.579 114.49Z" fill="#004033"/>
<path d="M149.867 114.49C148.628 114.49 147.672 115.427 147.672 116.643C147.672 117.825 148.628 118.797 149.867 118.797C151.107 118.797 152.062 117.825 152.062 116.643C152.062 115.427 151.107 114.49 149.867 114.49Z" fill="#004033"/>
<path d="M196.427 121.576C190.939 121.576 187.008 125.328 187.008 130.887C187.008 136.445 190.939 140.162 196.427 140.162C201.915 140.162 205.846 136.445 205.846 130.887C205.846 125.328 201.915 121.576 196.427 121.576ZM196.427 137.105C193.24 137.105 190.868 134.639 190.868 130.887C190.868 127.135 193.24 124.633 196.427 124.633C199.649 124.633 202.022 127.135 202.022 130.887C202.022 134.639 199.649 137.105 196.427 137.105Z" fill="#004033"/>
<path d="M151.707 121.924H148.025V139.815H151.707V121.924Z" fill="#004033"/>
<path d="M165.728 129.566L162.471 129.115C160.382 128.837 159.603 128.281 159.603 126.926C159.603 125.467 161.09 124.494 163.356 124.494C166.012 124.494 167.251 125.606 167.393 127.447H171.04C170.863 123.834 167.959 121.576 163.285 121.576C158.789 121.576 155.921 124.078 155.921 127.065C155.921 130.018 157.974 131.616 161.479 132.068L164.808 132.519C166.791 132.797 167.676 133.423 167.676 134.778C167.676 136.411 165.905 137.279 163.285 137.279C160.275 137.279 159.036 136.133 158.895 134.291H155.248C155.424 138.009 158.434 140.162 163.285 140.162C168.172 140.162 171.359 137.8 171.359 134.673C171.359 131.721 169.234 130.018 165.728 129.566Z" fill="#004033"/>
</g>
<defs>
<clipPath id="clip0_10267_42809">
<rect width="269" height="144" fill="white" transform="translate(0 3)"/>
</clipPath>
</defs>
</svg>
