<svg id="Vrstva_1" data-name="Vrstva 1" xmlns="http://www.w3.org/2000/svg" xmlns:xlink="http://www.w3.org/1999/xlink" viewBox="0 0 79 44"><defs><style>.cls-1{fill:#fff;}.cls-2{fill:#b12c27;}.cls-3{mask:url(#mask);}</style><mask id="mask" x="19.89" y="1.96" width="39.36" height="23.23" maskUnits="userSpaceOnUse"><g id="mask-2"><polygon id="path-1" class="cls-1" points="19.89 1.96 59.25 1.96 59.25 25.19 19.89 25.19 19.89 1.96"/></g></mask></defs><title>generali-cp</title><g id="logo-_-insurer-_-Generali-2" data-name="logo-/-insurer-/-Generali-2"><g id="Group-62-Copy-2"><g id="Group-62-Copy"><path id="Fill-1" class="cls-2" d="M27.36,30.25V27.54c1.7,0,2.32-.09,2.62,2h.18V27.22H25.54v.32h.8v6h-.88v.31h4.76V31.38H30c-.24,1.84-.71,2.12-2,2.12h-.61V30.6h.35c.59,0,.92.36,1,1.37H29V29h-.21s0,1.29-1.07,1.27"/><path id="Fill-3" class="cls-2" d="M25.47,30.37H22.87v.3h.89v2.14c-.15.54-1,.77-1.19.77-1.67,0-1.55-2.44-1.55-3.09S21,27.4,22.57,27.4c1.13,0,1.73,1.13,2,2.14h.18c0-.42,0-2.4,0-2.4s-.78.56-.78.55a1.56,1.56,0,0,0-1.37-.53c-2,0-2.69,2-2.68,3.33s.59,3.39,2.68,3.39a1.6,1.6,0,0,0,1.37-.71l.83.65V30.66h.7"/><path id="Fill-5" class="cls-2" d="M56,31.38c-.24,1.84-.7,2.12-2,2.12h-.08v-6h.83v-.32H52v.32h.83v6h-.66L49.69,27h-.36s-2,5.86-2,5.88-.15.5-.49.57-.28-.15-.28-.2V32.15a2,2,0,0,0-.33-1.28,1.77,1.77,0,0,0-.92-.39,1.86,1.86,0,0,0,1.5-1.73c0-1-.69-1.49-1.85-1.54H41.64v.32h.84v6h-.84v.32h2.7V33.5h-.84V30.63h1.12c1.95.16-.33,3.18,2.22,3.18h1.61V33.5c-.09,0-.68,0-.71-.39a6.2,6.2,0,0,1,.39-1.36H50.3S51,33.5,51,33.5h-.76v.32h6V31.38ZM44.57,30.3H43.5V27.54h1.37c.8.12.84,1.05.84,1.35,0,.71-.3,1.42-1.13,1.42Zm3.69,1.14.95-2.85,1,2.85Z"/><path id="Fill-7" class="cls-2" d="M38.39,27.54c1.7,0,2.33-.08,2.62,2h.18V27.22H34.45v.32h.18c.24,0,.8,0,.83.51v3.8l-3.15-4.63H30.59v.32h.29c.34,0,.81,0,.83.51v4.87c0,.47-.71.65-1,.65h0v.24H33v-.24c-.3,0-1-.18-1-.65V28.63c1.25,1.78,3.6,5.18,3.62,5.18h.12V28.05c0-.5.6-.51.83-.51h.77v6h-.88v.31h4.77V31.38H41c-.24,1.84-.7,2.12-2,2.12h-.61V30.61h.35c.59,0,.92.35,1,1.37H40V29h-.21s0,1.29-1.07,1.27h-.33"/><polyline id="Fill-9" class="cls-2" points="59.19 27.54 59.19 27.21 56.5 27.21 56.5 27.54 57.34 27.54 57.35 33.49 56.5 33.49 56.5 33.81 59.19 33.81 59.19 33.49 58.34 33.49 58.34 27.54"/><g id="Group-13"><g class="cls-3"><path id="Fill-11" class="cls-2" d="M52.09,23.15l.83-.32h0c1.18-.49,1.35-.8,1.29-1.58V18.07C55.13,20.35,56,22,57.72,22a3.52,3.52,0,0,0,.76-.09l.68-.15-.47-.52a4.53,4.53,0,0,1-.61-.88l-.22-.39a1.74,1.74,0,0,0-2.16-.53c-.36-.71-.72-1.63-1.15-2.77l-.1-.22-.22-.51v0h0a15.81,15.81,0,0,0-.9-1.77,10.15,10.15,0,0,0-1-1.36,5.8,5.8,0,0,0-3.58-2,20.81,20.81,0,0,0-2.64-.25l-.59,0-2.08-.16-1.57-.13a1.7,1.7,0,0,0,0-.39,2.25,2.25,0,0,0,0-.49h5.83a3.35,3.35,0,0,0,3.23-2,3.35,3.35,0,0,0,3.21-2h.21a3.37,3.37,0,0,0,3.3-2.11l.26-.58H38.2a3,3,0,0,0-2.81,2.16v0a4.19,4.19,0,0,0-1.74-2.2,4.37,4.37,0,0,0-3.33-.58,3.47,3.47,0,0,0-.92.42,3.33,3.33,0,0,0-.78.69,6.34,6.34,0,0,0-.68,1.08,1.36,1.36,0,0,0-.26.28L27.43,5V5a5.59,5.59,0,0,1-.9,1.39.92.92,0,0,0-.24.8,1,1,0,0,0,.27.51h0a.9.9,0,0,0-.12.45,1,1,0,0,0,1,.91,2,2,0,0,0,1.09-.42,3,3,0,0,1,.64-.36.31.31,0,0,1,.3.3c0,.43-.55.66-.95.69l-.8.08c-.58.05-.85.36-.85.63a.69.69,0,0,0,.22.52l.06.06.2.18-.85,1.37a3.16,3.16,0,0,0-1.94-.92,1.28,1.28,0,0,0-1.21.59h0a1.79,1.79,0,0,0-1.48.76A1.8,1.8,0,0,0,22,14.38l-2.15.56V25.19H59.25v-2Zm5.08-2.79.21.36c.08.14.16.28.25.42a1.94,1.94,0,0,1-1.52-1,.93.93,0,0,1,1.06.25Zm-8.52-8.79a5,5,0,0,1,3.09,1.7c.17.2.33.41.49.63-2.13-.28-2.88-.59-4.07-2.4l.5.07Zm-.92-3.06h-4a3.74,3.74,0,0,0,.86-1.16H50a2.52,2.52,0,0,1-2.3,1.16Zm3.19-2h-4a3.75,3.75,0,0,0,.89-1.2h5.45a2.52,2.52,0,0,1-2.33,1.2Zm.27-3.07h5.43a2.52,2.52,0,0,1-2.23,1.06h-4a3.65,3.65,0,0,0,.81-1.06Zm-21.93.21a2.51,2.51,0,0,1,.59-.51,2.55,2.55,0,0,1,.7-.32,2.84,2.84,0,0,1,1.31,0l-1.44.89a4.64,4.64,0,0,0-.52,0,4.18,4.18,0,0,0-.68.05l0-.06ZM27.57,10a.12.12,0,0,1,.11-.1l.7,0c.85,0,1.73-.38,1.82-1.27a1.13,1.13,0,0,0-1-1.19,2.27,2.27,0,0,0-1.09.5,1.51,1.51,0,0,1-.64.32c-.11,0-.2-.07-.2-.13a.06.06,0,0,1,0,0l.45-.6-.39-.26c-.08-.05-.21-.15-.22-.23s0-.1.06-.12a6.65,6.65,0,0,0,.53-.7c.11-.16.18-.25.37-.25a.34.34,0,0,1,.34.34c0,.12.13.22.3.22s.24-.12.35-.22.4-.37.19-.54S28,6,28.29,5.11L28.36,5a2,2,0,0,1,1.52-.48,4.71,4.71,0,0,1,.57,0l.14,0,2-1.25a.46.46,0,0,1,0,.07h0a1.76,1.76,0,0,1-.9,1.7l-.25.14.16.92a1.16,1.16,0,0,0-.88,1.08,3.67,3.67,0,0,0,.09.64,6.79,6.79,0,0,1,.14.95c0,1-1.31,1.58-2.42,1.55h0a2.75,2.75,0,0,1-.93-.19.14.14,0,0,1-.05-.12Zm-5,3a1,1,0,0,1,1-.38l.35.06.11-.34a.5.5,0,0,1,.12-.21.59.59,0,0,1,.43-.13,2.55,2.55,0,0,1,1.6.89,4.13,4.13,0,0,1,.49.65l.09.15.08.13a3.1,3.1,0,0,1,.25.43l.51-.71s0,0,0-.06a3.16,3.16,0,0,0-.18-.31l0-.06h0l-.06-.09c-.06-.09-.14-.22-.17-.29l1.06-1.7a3,3,0,0,0,.6.06h0c1.5,0,3-.86,3-2.31v0a7.19,7.19,0,0,0-.15-1.07,3.44,3.44,0,0,1-.08-.48c0-.16.22-.34.54-.34h.49L32.4,5.64a2.61,2.61,0,0,0,1.08-2.1,3.75,3.75,0,0,1,1.35,2.58,4.28,4.28,0,0,1-.13,1.17l-.05.19h0a15.87,15.87,0,0,1-.57,1.83L34,9.63l.31.17c.55.31.88.54.88,1.25a1.75,1.75,0,0,1-1.46,1.6l-1,.18.83.55a.93.93,0,0,1,.43.77,1,1,0,0,1-1,.94h-.31l-.09.29c-.3,1-.64,1.48-1.7,1.58A5.83,5.83,0,0,0,31,16c0-.1,0-.37,0-.45l0-.92-.65.66a2.07,2.07,0,0,1-1,.49v-.81l-4.66-1.21-1.66.43A1.25,1.25,0,0,1,22.54,13ZM21.2,23.15l3.35-.87,3.35.87Zm7.19-.71-3.84-1-3.84,1V15.56l3.84-1,3.84,1Zm1.79-1.34a2.32,2.32,0,0,0-.13,2h-.84V16.57a3.57,3.57,0,0,0,.93-.27,6.48,6.48,0,0,1-.11.82l0,.22-.08.47h.48a3.64,3.64,0,0,0,1.67-.32v2.75a.12.12,0,0,1-.12.13h-.12a1.94,1.94,0,0,0-1.64.74Zm8.85.18a2.09,2.09,0,0,0-.4,1.87h-5a1.82,1.82,0,0,0,1.19-.46,1.52,1.52,0,0,0,.34-1.13s.06-.14.31-.25l.43-.2-.26-.4a4.73,4.73,0,0,1-.08-2.86h0a11.56,11.56,0,0,0,3.94-.72l.94-.29h0s.34-.11.8-.22l1.63,2.68v0c.16.23.18.39-.11.73l-.82.88-1.33-.25h0a1.87,1.87,0,0,0-1.66.6Zm.44,1.87a1.43,1.43,0,0,1,.18-1.34,1.05,1.05,0,0,1,.91-.34l1.55.29h.25l1.09-1.18h0a1.31,1.31,0,0,0,.17-1.72l-1.46-2.41a5.06,5.06,0,0,1,.71-.06h0a3.22,3.22,0,0,1,1.52.45l.42.86c.31.62.69,1.4.79,1.71a.69.69,0,0,1-.23.78l-2.8,3Zm9.56,0h-5.3L46,20.75a1.52,1.52,0,0,0,.41-1.6c-.11-.32-.41-.94-.72-1.58a14.7,14.7,0,0,0,5,1c.34,0,.42.14.49.45l.12,1.2-1.46.32a1.4,1.4,0,0,0-1,.88,2,2,0,0,0,.18,1.7Zm.58-1.41a.58.58,0,0,1,.45-.38l2.18-.48L52,18.93v0a1.27,1.27,0,0,0-1.23-1.11c-3.89-.32-4.79-.89-5.74-1.5h0l-.06,0a4.07,4.07,0,0,0-2.11-.66,10.23,10.23,0,0,0-2.61.48l-1,.3a10.57,10.57,0,0,1-4,.68H35l-.08.31a6.78,6.78,0,0,0-.08,3.45,1,1,0,0,0-.43.78c0,.43-.08.53-.12.57a2.67,2.67,0,0,1-1.45.24h-.22l-.12.17a1.61,1.61,0,0,1-1.6.47,1.69,1.69,0,0,1,0-1.45,1.2,1.2,0,0,1,1-.39h.12a.94.94,0,0,0,.94-.94v-3.5a3.93,3.93,0,0,0,.39-.84,1.77,1.77,0,0,0,1.51-1.73,1.73,1.73,0,0,0-.27-.93A2.45,2.45,0,0,0,36,11.06a1.93,1.93,0,0,0-1-1.79,15.66,15.66,0,0,0,.52-1.77l.68-2.45a2.15,2.15,0,0,1,2-1.58h12A2.53,2.53,0,0,1,48,4.53H40.72l-.38.81h6.52a2.52,2.52,0,0,1-2.33,1.2H39.8l-.38.81h4.22a2.52,2.52,0,0,1-2.3,1.16H38.76l-.38.81h2.71a.9.9,0,0,1,.09.49,1,1,0,0,1-1,.95,1.57,1.57,0,0,1-.62-.15l-.36-.15-.62.56.35.15a3,3,0,0,0,1.26.36A1.75,1.75,0,0,0,41.46,11l1.93.15,2.1.16.6,0,1,.06c1.64,2.67,2.48,3,5.66,3.4.23.41.43.84.63,1.28v5.22c0,.24,0,.32,0,.36a2.83,2.83,0,0,1-.77.42l-2.68,1a1.48,1.48,0,0,1-.34-1.35Z"/></g></g><polyline id="Fill-14" class="cls-2" points="27.54 16.62 24.97 15.95 24.97 16.79 27.54 17.46"/><polyline id="Fill-16" class="cls-2" points="21.56 17.46 24.13 16.79 24.13 15.95 21.56 16.62"/><polyline id="Fill-18" class="cls-2" points="21.56 19.15 24.13 18.49 24.13 17.65 21.56 18.31"/><polyline id="Fill-20" class="cls-2" points="27.54 18.31 24.97 17.64 24.97 18.49 27.54 19.15"/><polyline id="Fill-22" class="cls-2" points="27.54 20 24.97 19.33 24.97 20.18 27.54 20.84"/><polyline id="Fill-24" class="cls-2" points="21.56 20.84 24.13 20.18 24.13 19.33 21.56 20"/><path id="Fill-26" class="cls-2" d="M5.21,34.86,4,35.22a.64.64,0,0,1-.43,0l-1.21-.37c-.08,0-.16-.06-.18.07l.47.33,1,.74a.18.18,0,0,0,.17,0L5.4,34.92c0-.14-.12-.09-.19-.07"/><path id="Fill-28" class="cls-2" d="M5.47,41.55a2.38,2.38,0,0,1-.25.48,1.74,1.74,0,0,1-.31.34,1.87,1.87,0,0,1-.32.23,2,2,0,0,1-.82.24h0l-.18,0a1,1,0,0,1-.31-.12,1.54,1.54,0,0,1-.36-.29,1.84,1.84,0,0,1-.34-.53A3.79,3.79,0,0,1,2.28,41a8.09,8.09,0,0,1,0-2.54,3.77,3.77,0,0,1,.27-.87,1.86,1.86,0,0,1,.36-.54,1.6,1.6,0,0,1,.37-.29,1,1,0,0,1,.31-.11l.17,0h0a1.89,1.89,0,0,1,.62.09,1.59,1.59,0,0,1,.47.24,1.56,1.56,0,0,1,.33.33,2.52,2.52,0,0,1,.23.39,2.85,2.85,0,0,1,.25,1h.19V36.37l-.74.56a.79.79,0,0,0-.3-.28,2,2,0,0,0-.38-.15,2.11,2.11,0,0,0-.36-.07H3.76l-.25,0a2.28,2.28,0,0,0-.51.12,3.23,3.23,0,0,0-.64.3,2.24,2.24,0,0,0-.62.57,3.15,3.15,0,0,0-.48.94,4.46,4.46,0,0,0-.19,1.39,4.85,4.85,0,0,0,.34,1.67,4,4,0,0,0,.32.61,2.29,2.29,0,0,0,.47.54,2.34,2.34,0,0,0,.67.38,2.49,2.49,0,0,0,.89.15A2.15,2.15,0,0,0,4.42,43a1.86,1.86,0,0,0,.88-.6,2.69,2.69,0,0,0,.27-.4,3.3,3.3,0,0,0,.34-1.09H5.63a3,3,0,0,1-.16.63"/><path id="Fill-30" class="cls-2" d="M10.53,41.87a1.72,1.72,0,0,1-.36.6.87.87,0,0,1-.53.25H8V39.85h.54a.73.73,0,0,1,.48.26,1.59,1.59,0,0,1,.25.45,2.09,2.09,0,0,1,.12.61h.14V38.26H9.37a2.46,2.46,0,0,1-.14.59,1.48,1.48,0,0,1-.27.44.76.76,0,0,1-.48.25H8V36.77H9.51A.88.88,0,0,1,10,37a1.7,1.7,0,0,1,.36.6,3.22,3.22,0,0,1,.17,1.16h.13V36.45H6.14v.32H7v5.95H6.14V43h4.75V40.71H10.7a3.22,3.22,0,0,1-.16,1.16"/><path id="Fill-32" class="cls-2" d="M15.57,40.81a2.68,2.68,0,0,0,0-.33,1.56,1.56,0,0,0-.18-.52,1.93,1.93,0,0,0-.46-.55A2.17,2.17,0,0,0,14,39l-1.25-.32a1.64,1.64,0,0,1-.43-.21,1.45,1.45,0,0,1-.3-.29.67.67,0,0,1-.14-.44,1.21,1.21,0,0,1,.6-1,1.47,1.47,0,0,1,.79-.18,1.89,1.89,0,0,1,.79.22,1.8,1.8,0,0,1,.29.21,1.45,1.45,0,0,1,.25.3,1.5,1.5,0,0,1,.18.42,2.15,2.15,0,0,1,.07.56h.18V36.36l-.56.41a1,1,0,0,0-.37-.24l-.4-.13a2,2,0,0,0-.44,0,1.82,1.82,0,0,0-.65.13,1.93,1.93,0,0,0-.62.37,2,2,0,0,0-.46.62,2,2,0,0,0-.18.86,1.44,1.44,0,0,0,.2.79,1.85,1.85,0,0,0,.43.48,1.78,1.78,0,0,0,.62.3l1.38.32a1.24,1.24,0,0,1,.55.28,1.39,1.39,0,0,1,.29.38,1.08,1.08,0,0,1,.12.36c0,.11,0,.18,0,.22v0a1.36,1.36,0,0,1-.1.55,1.12,1.12,0,0,1-.26.38,1.31,1.31,0,0,1-.35.23,2.09,2.09,0,0,1-.37.13l-.32.05h-.22a2.13,2.13,0,0,1-.65-.09,1.81,1.81,0,0,1-.48-.23,1.55,1.55,0,0,1-.34-.32,2.34,2.34,0,0,1-.24-.37,2.64,2.64,0,0,1-.25-1h-.18V43l.65-.47a1.83,1.83,0,0,0,.49.33,2.64,2.64,0,0,0,.48.16,2.85,2.85,0,0,0,.51.07h.29A2,2,0,0,0,14.1,43a2.67,2.67,0,0,0,.5-.21,1.64,1.64,0,0,0,.47-.39,2.1,2.1,0,0,0,.35-.62,2.56,2.56,0,0,0,.14-.91"/><polyline id="Fill-34" class="cls-2" points="17.3 36.76 18.11 36.76 18.11 36.45 15.41 36.45 15.41 36.76 16.28 36.76 16.28 42.72 15.41 42.72 15.41 43.04 18.11 43.04 18.11 42.72 17.3 42.72"/><path id="Fill-36" class="cls-2" d="M23.53,36l1.09-.48,1.06-.47s.08-.09.12-.14a.57.57,0,0,0-.17-.07c-.17,0-.34,0-.51,0a1,1,0,0,0-.8.26c-.31.28-.64.54-1,.81,0,.11.08.14.18.09"/><path id="Fill-38" class="cls-2" d="M23.58,36.45H23.2l-2,5.91a.57.57,0,0,1-.45.34l-2.59-3.45,2.47-2.47h.71v-.32H19.5v.32h.8l-2.87,2.88,2.33,3.07H18.9V43h3.44v-.32h-.25l-.2-.06a.42.42,0,0,1-.16-.14.42.42,0,0,1-.06-.25.73.73,0,0,1,0-.24l.37-1h2.11l.64,1.65h-.72V43h2.47v-.32h-.64Zm-1.47,4.3L23,38l1,2.75Z"/><path id="Fill-40" class="cls-2" d="M49,36a.18.18,0,0,0,.16,0l1.49-1.06c0-.14-.12-.09-.19-.07l-1.17.35a.62.62,0,0,1-.42,0l-1.18-.36c-.08,0-.16-.06-.17.07l.46.32L49,36"/><path id="Fill-42" class="cls-2" d="M53.75,36a.18.18,0,0,0,.16,0l1.49-1.06c0-.14-.12-.09-.19-.07L54,35.23a.62.62,0,0,1-.42,0l-1.18-.36c-.08,0-.16-.06-.17.07l.46.32,1,.73"/><path id="Fill-44" class="cls-2" d="M33.4,36.7a1.61,1.61,0,0,0-.59-.21l-.42,0H29.11v.33H30v5.94h-.86V43h2.7v-.32H31V40h1.52a2.18,2.18,0,0,0,.35-.07,2.08,2.08,0,0,0,.43-.17,1.56,1.56,0,0,0,.73-.85,2.15,2.15,0,0,0,.12-.77,1.72,1.72,0,0,0-.22-.94,1.54,1.54,0,0,0-.52-.51m-.32,1.5s0,.11,0,.2a2.08,2.08,0,0,1,0,.31c0,.11,0,.23-.08.35a1.34,1.34,0,0,1-.13.33.72.72,0,0,1-.22.24.52.52,0,0,1-.31.09H31V36.78h1.32a.65.65,0,0,1,.39.17,1.13,1.13,0,0,1,.27.4,2.09,2.09,0,0,1,.12.79"/><path id="Fill-46" class="cls-2" d="M39.64,41.42a5.12,5.12,0,0,0,.34-1.7,4.36,4.36,0,0,0-.19-1.37,3.16,3.16,0,0,0-.47-.93,2.19,2.19,0,0,0-.62-.57,3.31,3.31,0,0,0-.63-.3,2.35,2.35,0,0,0-.51-.12l-.25,0h0l-.26,0a2.42,2.42,0,0,0-.52.12,3.34,3.34,0,0,0-.64.3,2.29,2.29,0,0,0-.63.57,3,3,0,0,0-.48.93,4.36,4.36,0,0,0-.19,1.37,5.12,5.12,0,0,0,.34,1.7,4.06,4.06,0,0,0,.33.62,2.29,2.29,0,0,0,.48.55,2.32,2.32,0,0,0,.67.39,2.83,2.83,0,0,0,1.79,0,2.24,2.24,0,0,0,.67-.39,2.45,2.45,0,0,0,.48-.55,3.35,3.35,0,0,0,.32-.62M38.75,41a3.78,3.78,0,0,1-.25.86,2,2,0,0,1-.34.54,1.56,1.56,0,0,1-.36.29,1,1,0,0,1-.31.12l-.19,0h-.06l-.18,0a1,1,0,0,1-.31-.12,1.63,1.63,0,0,1-.36-.29,1.84,1.84,0,0,1-.34-.54,3.92,3.92,0,0,1-.25-.86,8,8,0,0,1,0-2.52A4,4,0,0,1,36,37.6a1.83,1.83,0,0,1,.34-.54,1.6,1.6,0,0,1,.36-.29,1,1,0,0,1,.31-.12l.19,0h.06l.19,0a1,1,0,0,1,.3.12,1.51,1.51,0,0,1,.36.29,2,2,0,0,1,.34.54,3.82,3.82,0,0,1,.25.86,8.09,8.09,0,0,1,0,2.51"/><polyline id="Fill-48" class="cls-2" points="43.8 36.77 44.68 36.77 44.68 42.72 43.8 42.72 43.8 43.04 46.51 43.04 46.51 42.72 45.68 42.72 45.68 36.77 46.51 36.77 46.51 36.45 43.8 36.45"/><path id="Fill-50" class="cls-2" d="M51,40a1.94,1.94,0,0,0-.46-.55,2.17,2.17,0,0,0-.86-.41l-1.25-.32a1.52,1.52,0,0,1-.43-.21,1.47,1.47,0,0,1-.3-.29.67.67,0,0,1-.14-.44,1.26,1.26,0,0,1,.19-.57,1.24,1.24,0,0,1,.41-.4A1.47,1.47,0,0,1,49,36.6a1.9,1.9,0,0,1,.79.22,1.88,1.88,0,0,1,.29.21,1.38,1.38,0,0,1,.25.3,1.48,1.48,0,0,1,.18.42,2.16,2.16,0,0,1,.07.56h.18V36.37l-.56.41a1.06,1.06,0,0,0-.37-.24l-.4-.13a2,2,0,0,0-.44,0,1.82,1.82,0,0,0-.65.13,2,2,0,0,0-.62.38,2,2,0,0,0-.46.62,2,2,0,0,0-.18.86,1.45,1.45,0,0,0,.2.8,1.72,1.72,0,0,0,1.05.79l1.38.32a1.24,1.24,0,0,1,.55.28,1.41,1.41,0,0,1,.29.38,1.09,1.09,0,0,1,.12.36c0,.11,0,.18,0,.22v0a1.35,1.35,0,0,1-.1.55,1.13,1.13,0,0,1-.26.38,1.31,1.31,0,0,1-.35.23,2.07,2.07,0,0,1-.37.13l-.31.05h-.22a2.13,2.13,0,0,1-.64-.09,1.9,1.9,0,0,1-.48-.23,1.55,1.55,0,0,1-.34-.32,2.15,2.15,0,0,1-.24-.37,2.64,2.64,0,0,1-.25-1h-.18V43l.65-.47a1.86,1.86,0,0,0,.49.33,2.55,2.55,0,0,0,.48.16,2.87,2.87,0,0,0,.51.07h.3a2,2,0,0,0,.42-.08,2.58,2.58,0,0,0,.5-.21,1.68,1.68,0,0,0,.47-.39,2.12,2.12,0,0,0,.35-.62,2.56,2.56,0,0,0,.14-.91v0a2.71,2.71,0,0,0,0-.34A1.59,1.59,0,0,0,51,40"/><path id="Fill-52" class="cls-2" d="M51.3,38.77h.14a3.23,3.23,0,0,1,.17-1.18A1.74,1.74,0,0,1,52,37a.88.88,0,0,1,.53-.25h.88v6h-.83V43h2.71v-.32h-.82v-6h.72a.83.83,0,0,1,.51.25,1.76,1.76,0,0,1,.35.6,3.42,3.42,0,0,1,.16,1.18h.19V36.45H51.3"/><path id="Fill-54" class="cls-2" d="M61.41,37.42a2.24,2.24,0,0,0-.62-.57,3.53,3.53,0,0,0-.63-.3,2.33,2.33,0,0,0-.51-.12l-.25,0h0l-.26,0a2.39,2.39,0,0,0-.52.12,3.46,3.46,0,0,0-.64.3,2.32,2.32,0,0,0-.63.57,3,3,0,0,0-.48.93,4.34,4.34,0,0,0-.19,1.37,5.12,5.12,0,0,0,.34,1.7,3.85,3.85,0,0,0,.33.63,2.31,2.31,0,0,0,.48.55,2.35,2.35,0,0,0,.67.39,2.83,2.83,0,0,0,1.79,0,2.23,2.23,0,0,0,.67-.39,2.48,2.48,0,0,0,.48-.55,3.28,3.28,0,0,0,.32-.63,5.12,5.12,0,0,0,.34-1.7,4.34,4.34,0,0,0-.19-1.37,3.17,3.17,0,0,0-.47-.93M60.84,41a3.93,3.93,0,0,1-.25.86,1.94,1.94,0,0,1-.34.54,1.45,1.45,0,0,1-.36.29,1.06,1.06,0,0,1-.31.12l-.19,0h-.06l-.18,0a1,1,0,0,1-.31-.12,1.55,1.55,0,0,1-.36-.29,1.8,1.8,0,0,1-.34-.54,3.85,3.85,0,0,1-.25-.86,8,8,0,0,1,0-2.52,3.86,3.86,0,0,1,.25-.86,1.8,1.8,0,0,1,.34-.54,1.59,1.59,0,0,1,.36-.29,1,1,0,0,1,.31-.12l.19,0h.06l.19,0a1,1,0,0,1,.31.12,1.49,1.49,0,0,1,.35.29,1.94,1.94,0,0,1,.34.54,4,4,0,0,1,.25.86,8.2,8.2,0,0,1,0,2.52"/><path id="Fill-56" class="cls-2" d="M72.2,36.77h.18v-.31H70.6v.31h.21l.23,0a.73.73,0,0,1,.22.11.34.34,0,0,1,.13.21v4l-3.17-4.67h-3v.28h.83l-1.34,4.65-1.49-4.65h.88v-.28H61.42v.28h.83l2,6.31h.24l1.85-6.31h.32s1,0,1,.65v5a.48.48,0,0,1-.29.31,1,1,0,0,1-.32.07H66.9V43h1.74v-.32h-.29a.69.69,0,0,1-.18-.05.46.46,0,0,1-.16-.11.42.42,0,0,1-.1-.2V37.83L71.33,43h.31V37.14a.51.51,0,0,1,.15-.21.76.76,0,0,1,.21-.11l.2,0"/><path id="Fill-58" class="cls-2" d="M77.43,42.72,75.1,36.45h-.38l-2,5.9a.55.55,0,0,1-.15.2.7.7,0,0,1-.18.11.69.69,0,0,1-.18,0H72V43h1.83v-.32H73.6a.71.71,0,0,1-.2-.06.38.38,0,0,1-.16-.14.41.41,0,0,1-.07-.24.73.73,0,0,1,0-.24l.37-1h2.11l.64,1.65h-.73V43h2.47v-.32Zm-3.8-2L74.54,38l1,2.75Z"/><path id="Fill-60" class="cls-2" d="M40.55,36.45v.32h.91V42a2,2,0,0,1-.08.48.93.93,0,0,1-.18.33.46.46,0,0,1-.36.15l-.12,0a.23.23,0,0,1-.08-.06.14.14,0,0,1,0-.1v-.1a.36.36,0,0,0,.1-.1.5.5,0,0,0,.06-.13.68.68,0,0,0,0-.16.67.67,0,0,0-.07-.32.48.48,0,0,0-.15-.17.56.56,0,0,0-.22-.08.53.53,0,0,0-.33.09.63.63,0,0,0-.17.19.68.68,0,0,0-.08.29.73.73,0,0,0,.16.5,1.1,1.1,0,0,0,.35.26,1.19,1.19,0,0,0,.5.1,1.58,1.58,0,0,0,.7-.14,1.52,1.52,0,0,0,.48-.36,1.72,1.72,0,0,0,.3-.48,2.92,2.92,0,0,0,.16-.51,3.25,3.25,0,0,0,.07-.45c0-.13,0-.23,0-.29V36.77h.92v-.32"/></g></g></g></svg>