<svg width="90" height="50" viewBox="0 0 90 50" fill="none" xmlns="http://www.w3.org/2000/svg">
<path d="M86.885 38.4185H2.12415V39.7075H86.885V38.4185Z" fill="#E2010F"/>
<path d="M7.12676 28.7675L11.4071 33.9016H8.38204L4.53971 29.3629V33.9016H2.12415V24.2286H4.53971V28.6113H4.56688L7.62366 24.2286H10.2868L7.12676 28.7675Z" fill="#00843D"/>
<path d="M19.0211 30.2512C19.0211 27.4367 16.7001 26.4309 14.9081 26.4309C12.7426 26.4309 10.7593 27.739 10.7593 30.2323C10.7593 32.5403 12.5075 34.0535 14.9081 34.0535C16.5228 34.0533 19.0211 33.1593 19.0211 30.2512ZM16.5564 30.1892C16.5564 31.7916 15.986 32.6834 14.9081 32.6834C14.0304 32.6834 13.2244 32.1262 13.2244 30.232C13.2244 28.5786 13.9078 27.7992 14.9081 27.7992C16.0631 27.7995 16.5564 28.7564 16.5564 30.1892Z" fill="#00843D"/>
<path d="M28.1906 30.2512C28.1906 27.4367 25.8672 26.4309 24.0731 26.4309C21.9148 26.4309 19.9224 27.739 19.9224 30.2323C19.9224 32.5403 21.6746 34.0535 24.0731 34.0535C25.6958 34.0533 28.1906 33.1593 28.1906 30.2512ZM25.7273 30.1892C25.7273 31.7916 25.1532 32.6834 24.0731 32.6834C23.2007 32.6834 22.3893 32.1262 22.3893 30.232C22.3893 28.5786 23.0751 27.7992 24.0731 27.7992C25.2322 27.7995 25.7273 28.7564 25.7273 30.1892Z" fill="#00843D"/>
<path d="M31.673 26.5833H29.3698V36.9918H31.673V33.5535C32.2158 33.8686 32.9102 34.0556 33.5584 34.0556C35.7334 34.0556 37.1638 32.5273 37.1638 30.1637C37.1638 28.044 35.6665 26.4279 33.7664 26.4279C32.9746 26.4279 32.3229 26.6683 31.673 27.2078V26.5833ZM31.673 28.6593C32.2459 28.2064 32.6063 28.062 33.1012 28.062C34.1952 28.062 34.8268 28.8829 34.8268 30.2899C34.8268 31.6628 34.1263 32.527 33.0052 32.527C32.5499 32.527 32.1364 32.3809 31.673 32.0466V28.6593Z" fill="#00843D"/>
<path d="M45.5863 31.6312C44.5049 32.4117 43.7929 32.6834 42.8647 32.6834C41.4042 32.6834 40.5111 31.9167 40.4264 30.6049H45.7085C45.824 27.9457 44.0616 26.4309 41.9174 26.4309C39.65 26.4309 38.0401 28.0248 38.0401 30.262C38.0401 32.5575 39.71 34.0535 42.3071 34.0535C42.8794 34.0535 44.2674 34.0535 45.5861 33.0856L45.5863 31.6312ZM40.4721 29.4134C40.5753 28.3902 41.1642 27.7995 42.079 27.7995C42.9776 27.7995 43.5836 28.4098 43.6802 29.4134H40.4721Z" fill="#00843D"/>
<path d="M49.4845 28.1725L49.5176 28.5138C50.2013 26.9961 51.0138 26.6109 51.6585 26.5529C51.906 26.5293 52.4412 26.4691 52.9382 26.9725V29.1805C52.3357 28.8008 51.6966 28.8259 51.329 28.8259C50.5443 28.8259 49.4783 29.8494 49.4845 30.7421V33.9016H47.1807V26.5835H49.4845V28.1725Z" fill="#00843D"/>
<path d="M61.269 32.0946C60.7332 32.4768 60.559 32.5077 60.3955 32.5077C60.1614 32.5077 60.0159 32.3635 60.0159 31.9989V28.6464C60.0159 27.0439 58.7598 26.428 56.9092 26.428C55.739 26.428 54.6769 26.7282 53.7234 27.313V29.1887C54.4509 28.434 55.5027 27.959 56.4304 27.959C57.4371 27.959 57.7557 28.5026 57.707 29.1887C54.6272 30.1458 53.3363 30.4997 53.3363 32.2548C53.3363 33.1787 54.2155 34.0555 55.3885 34.0555C56.1862 34.0555 56.9236 33.8335 57.8219 33.2261C57.9781 33.8145 58.3418 34.0555 59.1087 34.0555C59.7307 34.0555 60.6372 33.7669 61.2692 33.3893L61.269 32.0946ZM57.7068 32.126C57.3231 32.4768 56.8564 32.6832 56.4301 32.6832C56.0056 32.6832 55.6774 32.3293 55.6774 31.9005C55.6774 31.1638 56.3342 30.85 57.7068 30.3537V32.126Z" fill="#00843D"/>
<path d="M67.1747 28.1661H64.5018V31.1938C64.5018 31.9079 64.9101 32.3669 65.6294 32.3669C66.1079 32.3669 66.5529 32.2576 67.1747 31.9384V33.5955C66.3609 33.9266 65.7549 34.0554 65.0398 34.0554C63.5109 34.0554 62.1914 33.3587 62.1914 31.3098V28.1659H61.1418V27.7213L64.2137 24.2849H64.5016V26.5854H67.1745L67.1747 28.1661Z" fill="#00843D"/>
<path d="M70.6037 24.1967C70.6037 24.8932 70.0325 25.4684 69.3358 25.4684C68.6281 25.4684 68.062 24.8932 68.062 24.1967C68.062 23.4999 68.6281 22.9258 69.3358 22.9258C70.0325 22.9258 70.6037 23.5001 70.6037 24.1967ZM68.1682 26.5834H70.4765V33.9014H68.1682V26.5834Z" fill="#00843D"/>
<path d="M70.9459 26.5834H73.405L74.967 30.6236L76.5402 26.5834H78.9824L75.6128 34.0556H74.3299L70.9459 26.5834Z" fill="#00843D"/>
<path d="M86.8848 32.0946C86.3425 32.4768 86.1646 32.5077 86.0114 32.5077C85.7699 32.5077 85.6259 32.3635 85.6259 31.9989V28.6464C85.6259 27.0439 84.3667 26.428 82.5159 26.428C81.3511 26.428 80.2826 26.7282 79.3287 27.313V29.1887C80.0586 28.434 81.1138 27.959 82.0387 27.959C83.0468 27.959 83.3693 28.5026 83.3181 29.1887C80.2353 30.1458 78.9497 30.4997 78.9497 32.2548C78.9497 33.1787 79.8249 34.0555 80.9994 34.0555C81.7943 34.0555 82.5348 33.8335 83.4293 33.2261C83.5913 33.8145 83.9575 34.0555 84.7253 34.0555C85.343 34.0555 86.244 33.7669 86.885 33.3893L86.8848 32.0946ZM83.3181 32.126C82.9359 32.4768 82.4723 32.6832 82.0387 32.6832C81.617 32.6832 81.2855 32.3293 81.2855 31.9005C81.2855 31.1638 81.9469 30.85 83.3179 30.3537L83.3181 32.126Z" fill="#00843D"/>
<path d="M36.8524 11.387L38.4966 14.237L35.4926 19.4348H42.8578L45.8658 14.237H49.1607L44.5114 22.283H33.8446L32.1946 19.4348L36.8524 11.387Z" fill="#00843D"/>
<path d="M45.8658 22.283L47.5156 19.4347H53.5269L49.8412 13.0653H43.8279L42.1787 10.2149H51.4906L56.8194 19.4347L55.1743 22.283H45.8658Z" fill="#00843D"/>
<path d="M50.8119 9.04424H47.5157L44.5115 3.84627L40.8212 10.215L43.828 15.4125L42.1787 18.261L37.5287 10.215L42.8578 1H46.1556L50.8119 9.04424Z" fill="#00843D"/>
<path d="M5.90103 43.293H5.00929L3.9504 46.8282L2.8915 43.293H2L3.62545 48.2081H4.27535L5.90103 43.293Z" fill="black"/>
<path d="M7.22372 43.293H6.37994V48.2079H7.22372V43.293Z" fill="black"/>
<path d="M11.0683 46.111V45.35H9.06805V44.0947H11.4126V43.293H8.22427V48.2081H11.4126V47.4063H9.06805V46.111H11.0683Z" fill="black"/>
<path d="M12.9261 44.9138L15.0268 48.2081H15.8046V43.293H14.9605V46.5878L12.8599 43.293H12.0824V48.2081H12.9261V44.9138Z" fill="black"/>
<path d="M17.6493 44.9138L19.7501 48.2081H20.5277V43.293H19.6839V46.5878L17.5832 43.293H16.8054V48.2081H17.6493V44.9138Z" fill="black"/>
<path d="M22.795 43.293L21.0034 48.2079H21.8959L22.2675 47.1361H24.0105L24.382 48.2079H25.2745L23.483 43.293H22.795ZM23.7627 46.3746H22.5152L23.1389 44.4954L23.7627 46.3746Z" fill="black"/>
<path d="M28.6217 43.293H27.7779V48.2079H28.6217V43.293Z" fill="black"/>
<path d="M30.4662 44.9138L32.5671 48.2081H33.3445V43.293H32.5006V46.5878L30.4 43.293H29.6222V48.2081H30.4662V44.9138Z" fill="black"/>
<path d="M37.3063 45.8093C37.1914 45.6758 37.0446 45.5618 36.8708 45.4716C36.6969 45.3815 36.4891 45.3216 36.2532 45.2931C36.1341 45.2792 36.0286 45.2655 35.9368 45.2521L35.7019 45.2175C35.4678 45.1833 35.2991 45.1092 35.2004 44.998C35.1006 44.8858 35.0525 44.7709 35.0525 44.6458C35.0525 44.4283 35.123 44.2708 35.2678 44.1639C35.4155 44.0544 35.6009 43.9991 35.8179 43.9991C36.0321 43.9991 36.2412 44.0328 36.4392 44.0996C36.6386 44.1664 36.8286 44.257 37.0044 44.3694L37.0512 44.3992L37.5297 43.6916L37.4812 43.66C37.2533 43.5114 37.0005 43.3863 36.7295 43.2878C36.4572 43.1893 36.1623 43.1397 35.8528 43.1397C35.594 43.1397 35.3596 43.1771 35.1556 43.25C34.951 43.3238 34.7747 43.4275 34.6316 43.5585C34.4875 43.6903 34.3769 43.8491 34.303 44.0308C34.229 44.2115 34.1915 44.4136 34.1915 44.6322C34.1915 45.0035 34.3079 45.3239 34.5377 45.5843C34.7674 45.8444 35.1072 46.0071 35.5475 46.0686L35.8864 46.1168C35.9832 46.1311 36.0873 46.1448 36.198 46.1586C36.404 46.1844 36.5561 46.2521 36.6498 46.3603C36.7437 46.4687 36.7914 46.6047 36.7914 46.7644C36.7914 46.9535 36.7142 47.1015 36.5559 47.215C36.3938 47.3317 36.1643 47.3907 35.8736 47.3907C35.619 47.3907 35.3718 47.3467 35.1401 47.2599C34.9068 47.1726 34.6953 47.0557 34.5121 46.9128L34.4694 46.8797L33.9054 47.522L33.9483 47.5598C34.2155 47.7935 34.5126 47.9689 34.8309 48.081C35.149 48.1932 35.4975 48.2496 35.8665 48.2496C36.4073 48.2496 36.8437 48.1203 37.1641 47.8648C37.4878 47.606 37.6521 47.2361 37.6521 46.7644C37.6521 46.5931 37.6231 46.4235 37.5659 46.2592C37.5084 46.0942 37.4211 45.9429 37.3063 45.8093Z" fill="black"/>
<path d="M41.0191 46.4453C41.0191 46.6032 40.9953 46.7441 40.9485 46.8624C40.9022 46.9804 40.8375 47.08 40.7557 47.1597C40.6743 47.2391 40.5761 47.3008 40.4646 47.3428C40.2399 47.4278 39.9527 47.4278 39.7279 47.3428C39.6168 47.3008 39.5186 47.2391 39.4368 47.1597C39.3552 47.08 39.2902 46.9804 39.2438 46.8624C39.1973 46.7438 39.1735 46.6037 39.1735 46.4453V43.293H38.3297V46.526C38.3297 46.7847 38.3756 47.0224 38.466 47.233C38.5565 47.444 38.6837 47.6261 38.8447 47.7751C39.0048 47.9233 39.1938 48.0404 39.4066 48.1231C39.6195 48.2063 39.8512 48.2487 40.0962 48.2487C40.3413 48.2487 40.5731 48.2063 40.7861 48.1231C40.9989 48.0404 41.188 47.9233 41.3481 47.7751C41.5089 47.6261 41.6366 47.444 41.7265 47.233C41.8169 47.0224 41.863 46.7847 41.863 46.526V43.293H41.0193L41.0191 46.4453Z" fill="black"/>
<path d="M45.9708 45.5436C46.1411 45.2993 46.2277 45.0125 46.2277 44.6921C46.2277 44.4683 46.1788 44.262 46.0827 44.0789C45.9869 43.8976 45.8678 43.745 45.728 43.6239C45.592 43.5068 45.4382 43.4213 45.2718 43.3698C45.1071 43.319 44.9185 43.2933 44.7111 43.2933H42.7755V48.2081H43.6194V46.1584H44.459L45.4366 48.1763L45.4519 48.2084H46.4466L45.3184 46.0513C45.5929 45.9424 45.8118 45.7719 45.9708 45.5436ZM43.6196 44.0542H44.7043C44.8237 44.0542 44.9228 44.0658 44.9984 44.0889C45.0729 44.1116 45.1423 44.1462 45.2051 44.192C45.2727 44.2397 45.3266 44.306 45.3652 44.3883C45.4042 44.4728 45.4241 44.5752 45.4241 44.6919C45.4241 44.7881 45.4084 44.8787 45.377 44.9618C45.3462 45.044 45.2989 45.1191 45.2368 45.1855C45.1756 45.2509 45.0964 45.3026 45.0011 45.34C44.9046 45.3779 44.7911 45.397 44.6636 45.397H43.6196V44.0542Z" fill="black"/>
<path d="M48.9538 43.293H48.2659L46.4741 48.2079H47.3665L47.7382 47.1361H49.4813L49.8531 48.2079H50.7455L48.9675 43.3304L48.9538 43.293ZM49.2336 46.3746H47.986L48.6096 44.4959L49.2336 46.3746Z" fill="black"/>
<path d="M52.0654 48.2081V44.9138L54.1491 48.1817L54.1659 48.2081H54.9436V43.293H54.0996V46.5873L52.0159 43.3197L51.9991 43.293H51.2212V48.2081H52.0654Z" fill="black"/>
<path d="M58.4919 46.754C58.293 47.1821 58.0021 47.3905 57.6034 47.3905C57.4386 47.3905 57.2956 47.3572 57.1785 47.2907C57.0588 47.2234 56.9608 47.1434 56.8863 47.0515C56.8393 46.9964 56.8012 46.9399 56.7729 46.8838C56.7452 46.8282 56.7211 46.754 56.7014 46.6625C56.6816 46.5696 56.6681 46.4472 56.6612 46.2992C56.6543 46.1506 56.651 45.9471 56.651 45.6944C56.651 45.4421 56.6543 45.2386 56.6612 45.09C56.6678 44.9424 56.6816 44.8198 56.7014 44.7267C56.7211 44.636 56.7448 44.5629 56.7725 44.51C56.8012 44.4554 56.84 44.3965 56.8873 44.3363C56.9606 44.2461 57.0586 44.1659 57.1787 44.0982C57.296 44.0324 57.439 43.9988 57.6034 43.9988C57.7109 43.9988 57.8147 44.0171 57.9114 44.0535C58.0094 44.0904 58.0972 44.1399 58.1728 44.2001C58.2486 44.2606 58.3143 44.3318 58.3686 44.4121C58.4225 44.4918 58.463 44.5777 58.4888 44.668L58.5006 44.7094H59.4006L59.3881 44.6422C59.3499 44.4387 59.2802 44.2439 59.1816 44.0631C59.0821 43.8809 58.9537 43.7194 58.7996 43.582C58.6454 43.4448 58.4664 43.3359 58.2673 43.2575C58.0677 43.1791 57.8441 43.1395 57.6034 43.1395C57.4052 43.1395 57.2189 43.167 57.0499 43.2217C56.882 43.2759 56.73 43.3468 56.5978 43.4319C56.4646 43.5168 56.3477 43.6157 56.2504 43.7247C56.1536 43.8329 56.0734 43.9427 56.0115 44.0519C55.9686 44.1286 55.9335 44.2019 55.9079 44.2701C55.8809 44.341 55.8583 44.4312 55.8392 44.5465C55.8202 44.6591 55.8073 44.8024 55.8004 44.9849C55.7935 45.1639 55.7898 45.4029 55.7898 45.6944C55.7898 45.9864 55.7935 46.2254 55.8004 46.4039C55.8073 46.5864 55.8202 46.7298 55.8392 46.8424C55.8583 46.9581 55.8809 47.0484 55.9077 47.1188C55.9337 47.1879 55.9686 47.2612 56.0115 47.3374C56.0732 47.446 56.1536 47.5564 56.2504 47.6646C56.3477 47.7738 56.4646 47.8724 56.5975 47.9575C56.7302 48.043 56.8823 48.1134 57.0499 48.1672C57.2182 48.2218 57.4045 48.2494 57.6034 48.2494C57.8211 48.2494 58.0282 48.2172 58.2193 48.1532C58.4118 48.0892 58.5886 47.9948 58.7447 47.8715C58.9016 47.7487 59.0364 47.5947 59.1458 47.4149C59.2544 47.2355 59.3358 47.0254 59.3877 46.7904L59.4032 46.7209H58.5072L58.4919 46.754Z" fill="black"/>
<path d="M62.7361 46.111V45.35H60.7362V44.0947H63.0806V43.293H59.8921V48.2081H63.0806V47.4063H60.7362V46.111H62.7361Z" fill="black"/>
<path d="M67.927 46.2073H68.9295V46.4053C68.9295 46.5491 68.9043 46.6836 68.8543 46.8046C68.8042 46.9261 68.736 47.0316 68.6519 47.1175C68.5681 47.2039 68.4672 47.2711 68.3526 47.3188C68.2382 47.3664 68.1119 47.3903 67.9769 47.3903C67.8121 47.3903 67.6691 47.357 67.552 47.2904C67.4323 47.2233 67.3343 47.1433 67.2599 47.0514C67.2128 46.9963 67.1747 46.9398 67.1463 46.8837C67.1188 46.8281 67.0946 46.7538 67.0749 46.6624C67.0551 46.5694 67.0416 46.447 67.0347 46.2991C67.0279 46.1505 67.0245 45.947 67.0245 45.6943C67.0245 45.442 67.0279 45.2385 67.0347 45.0898C67.0414 44.9422 67.0551 44.8196 67.0749 44.7266C67.0946 44.6359 67.1183 44.5628 67.1459 44.5099C67.1747 44.4551 67.2135 44.3964 67.2608 44.3362C67.3341 44.246 67.4321 44.1658 67.5522 44.0981C67.6696 44.0321 67.8126 43.9987 67.9769 43.9987C68.0845 43.9987 68.1882 44.0169 68.285 44.0534C68.3829 44.0903 68.4707 44.1398 68.5463 44.1999C68.622 44.2605 68.6878 44.3316 68.7421 44.4118C68.796 44.4916 68.8364 44.5775 68.8623 44.6678L68.8741 44.7093H69.7741L69.7615 44.6421C69.7234 44.4385 69.6537 44.2436 69.5551 44.063C69.4555 43.8808 69.3273 43.7193 69.173 43.5818C69.0189 43.4447 68.8399 43.3358 68.6408 43.2573C68.4412 43.1789 68.2177 43.1392 67.9769 43.1392C67.7787 43.1392 67.5924 43.1668 67.4234 43.2216C67.2556 43.2758 67.1035 43.3467 66.9713 43.4316C66.8381 43.5167 66.7212 43.6155 66.6239 43.7246C66.527 43.8328 66.4469 43.9426 66.3851 44.0518C66.3421 44.1283 66.307 44.2018 66.2813 44.2698C66.2545 44.3407 66.2318 44.4311 66.2126 44.5464C66.1937 44.6589 66.1809 44.8023 66.1738 44.9848C66.1669 45.1638 66.1633 45.4028 66.1633 45.6943C66.1633 45.9862 66.1669 46.2253 66.1738 46.4037C66.1809 46.5863 66.1937 46.7296 66.2126 46.8423C66.2318 46.958 66.2545 47.0482 66.2811 47.1187C66.3072 47.1877 66.3421 47.2611 66.3851 47.3372C66.4467 47.4459 66.527 47.5562 66.6239 47.6645C66.7212 47.7736 66.8381 47.8723 66.9711 47.9573C67.1037 48.0428 67.2558 48.1133 67.4234 48.167C67.5917 48.2217 67.778 48.2493 67.9769 48.2493C68.2275 48.2493 68.4663 48.2026 68.6869 48.1105C68.9071 48.0184 69.1016 47.8887 69.265 47.7256C69.4286 47.5626 69.5583 47.3693 69.6506 47.1522C69.7431 46.9345 69.7899 46.6972 69.7899 46.4466V45.3889H67.9264L67.927 46.2073Z" fill="black"/>
<path d="M73.8343 45.5436C74.0047 45.2993 74.0911 45.0125 74.0911 44.6921C74.0911 44.4683 74.0422 44.262 73.946 44.0789C73.8504 43.8976 73.7312 43.745 73.5914 43.6239C73.4553 43.5068 73.3017 43.4213 73.1352 43.3698C72.9706 43.319 72.7817 43.2933 72.5743 43.2933H70.6388V48.2081H71.4828V46.1584H72.3222L73.3002 48.1763L73.3154 48.2084H74.3101L73.1817 46.0513C73.4562 45.9424 73.6754 45.7719 73.8343 45.5436ZM71.483 44.0542H72.5677C72.6872 44.0542 72.7863 44.0658 72.8619 44.0889C72.9363 44.1116 73.0057 44.1462 73.0686 44.192C73.1361 44.2397 73.1899 44.306 73.2286 44.3883C73.2677 44.4728 73.2876 44.5752 73.2876 44.6919C73.2876 44.7881 73.2717 44.8787 73.2405 44.9618C73.2096 45.044 73.1624 45.1191 73.1003 45.1855C73.0391 45.2509 72.9599 45.3026 72.8647 45.34C72.7681 45.3779 72.6544 45.397 72.5271 45.397H71.483V44.0542Z" fill="black"/>
<path d="M78.2853 44.5465C78.266 44.4312 78.2434 44.341 78.2165 44.27C78.19 44.2006 78.1551 44.1271 78.1128 44.052C78.0514 43.9437 77.9713 43.8338 77.874 43.7247C77.776 43.6152 77.6595 43.5164 77.5267 43.4319C77.3939 43.3464 77.2418 43.2759 77.0744 43.2217C76.7356 43.1123 76.3054 43.1125 75.9677 43.2217C75.7998 43.2759 75.6477 43.3468 75.5155 43.4319C75.3823 43.5168 75.2655 43.6157 75.1681 43.7247C75.0714 43.8329 74.9912 43.9427 74.9293 44.052C74.8863 44.1285 74.8512 44.2019 74.8256 44.27C74.7987 44.341 74.7761 44.4312 74.7568 44.5465C74.7379 44.6591 74.7251 44.8024 74.718 44.9849C74.7112 45.1639 74.7076 45.403 74.7076 45.6945C74.7076 45.9864 74.7112 46.2255 74.718 46.4039C74.7251 46.5865 74.7379 46.7298 74.7568 46.8424C74.7761 46.9582 74.7987 47.0484 74.8254 47.1188C74.8514 47.1879 74.8863 47.2612 74.9293 47.3374C74.9909 47.4461 75.0714 47.5564 75.1681 47.6647C75.2655 47.7738 75.3823 47.8724 75.5153 47.9575C75.6479 48.043 75.8 48.1134 75.9677 48.1672C76.136 48.2219 76.3223 48.2494 76.5212 48.2494C76.7196 48.2494 76.9059 48.2219 77.0744 48.1676C77.2416 48.1134 77.3937 48.043 77.5267 47.9575C77.6593 47.8729 77.776 47.774 77.874 47.6647C77.9713 47.5554 78.0514 47.4456 78.1128 47.3374C78.1551 47.2626 78.19 47.1892 78.2165 47.1193C78.2434 47.0484 78.266 46.9582 78.2855 46.8424C78.3039 46.7298 78.3172 46.5818 78.3241 46.4039C78.3309 46.2255 78.3345 45.9864 78.3345 45.6945C78.3345 45.403 78.3309 45.1639 78.3241 44.9849C78.3172 44.8069 78.3039 44.6596 78.2853 44.5465ZM76.5212 43.9991C76.6856 43.9991 76.8285 44.0324 76.9457 44.0984C77.0653 44.1662 77.1635 44.2461 77.235 44.3339C77.28 44.397 77.3183 44.4567 77.3494 44.5114C77.3789 44.5638 77.4035 44.6365 77.423 44.7267C77.4429 44.8198 77.4563 44.9422 77.4631 45.09C77.47 45.2386 77.4735 45.4421 77.4735 45.6945C77.4735 45.9471 77.47 46.1506 77.4631 46.2993C77.4565 46.447 77.4429 46.5696 77.423 46.6625C77.4033 46.7537 77.3784 46.8273 77.3489 46.882C77.3181 46.939 77.2802 46.9964 77.2373 47.0525C77.1633 47.1437 77.0653 47.2239 76.946 47.2907C76.8287 47.357 76.6861 47.3905 76.5214 47.3905C76.3568 47.3905 76.2136 47.3572 76.0965 47.2907C75.9768 47.2234 75.8788 47.1434 75.8043 47.0515C75.7573 46.9964 75.7192 46.9399 75.6909 46.8838C75.6632 46.8282 75.6391 46.754 75.6194 46.6625C75.5996 46.5696 75.5861 46.4472 75.5792 46.2993C75.5724 46.1506 75.569 45.9471 75.569 45.6945C75.569 45.4421 75.5724 45.2386 75.5792 45.09C75.5859 44.9424 75.5996 44.8198 75.6194 44.7267C75.6391 44.6361 75.6628 44.5629 75.6904 44.5101C75.7192 44.4553 75.758 44.3966 75.8053 44.3364C75.8786 44.2461 75.9766 44.1659 76.0967 44.0982C76.2138 44.0324 76.3568 43.9991 76.5212 43.9991Z" fill="black"/>
<path d="M81.7843 46.4453C81.7843 46.6037 81.7606 46.7441 81.714 46.8624C81.6674 46.9804 81.6025 47.0804 81.5211 47.1597C81.4395 47.2391 81.3413 47.3008 81.2301 47.3428C81.0054 47.4274 80.7182 47.4278 80.4932 47.3428C80.382 47.3008 80.284 47.2391 80.2022 47.1597C80.1206 47.08 80.0554 46.9804 80.0093 46.8624C79.9627 46.7438 79.939 46.6037 79.939 46.4453V43.293H79.0949V46.526C79.0949 46.7847 79.1409 47.0224 79.2315 47.233C79.3219 47.4436 79.4492 47.6261 79.6099 47.7751C79.77 47.9233 79.959 48.0404 80.1719 48.1231C80.3847 48.2063 80.6167 48.2487 80.8617 48.2487C81.1063 48.2487 81.3386 48.2063 81.5517 48.1231C81.7646 48.0404 81.9537 47.9233 82.1136 47.7751C82.2744 47.6261 82.4018 47.4436 82.492 47.233C82.5824 47.0228 82.6283 46.7847 82.6283 46.526V43.293H81.7845L81.7843 46.4453Z" fill="black"/>
<path d="M86.8415 44.1233C86.7374 43.9216 86.6084 43.7595 86.4572 43.6417C86.2625 43.494 86.0736 43.3975 85.8953 43.3555C85.721 43.314 85.5348 43.2933 85.3414 43.2933H83.5411V48.2081H84.3851V46.3337H85.4363C85.6911 46.3337 85.9183 46.2888 86.1117 46.2001C86.3049 46.1119 86.4691 45.9942 86.6002 45.8494C86.7306 45.7056 86.8308 45.543 86.8984 45.3664C86.966 45.1893 87 45.01 87 44.8336C87 44.5647 86.9468 44.3257 86.8415 44.1233ZM86.1563 44.8131C86.1563 44.9004 86.1405 44.9882 86.1092 45.0736C86.0776 45.1586 86.0313 45.2366 85.9713 45.3052C85.9115 45.3728 85.8341 45.428 85.7408 45.4695C85.6474 45.511 85.536 45.5321 85.4093 45.5321H84.3855V44.0947H85.3824C85.4807 44.0947 85.5698 44.1036 85.6467 44.1205C85.7208 44.1369 85.7959 44.1704 85.8698 44.2195C85.9527 44.2773 86.0222 44.3544 86.076 44.4473C86.1293 44.5394 86.1563 44.6627 86.1563 44.8131Z" fill="black"/>
</svg>
