<svg id="Vrstva_1" data-name="Vrstva 1" xmlns="http://www.w3.org/2000/svg" viewBox="0 0 79 44"><defs><style>.cls-1{fill:#323232;}</style></defs><title>pillow</title><path class="cls-1" d="M20.5,19.61a5,5,0,0,0-3.91-1.76H9.27a1.35,1.35,0,0,0-1.32,1.06L4.53,35.09a1.35,1.35,0,0,0,1,1.61h.3a1.36,1.36,0,0,0,1.32-1.08l1.24-6.07h6.33A7.14,7.14,0,0,0,21.5,23.8,5.08,5.08,0,0,0,20.5,19.61Zm-1.63,4A4.07,4.07,0,0,1,15,26.88H9l1.34-6.33h6a2.54,2.54,0,0,1,2,.88,2.63,2.63,0,0,1,.51,2.18Z"/><path class="cls-1" d="M45.54,37.32a6.7,6.7,0,0,1-6.76-7.42,8.27,8.27,0,0,1,8.06-7.42,6.68,6.68,0,0,1,6.75,7.42A8.25,8.25,0,0,1,45.54,37.32ZM46.6,25.2a5.24,5.24,0,0,0-5.12,4.71,4.24,4.24,0,0,0,4.29,4.67,5.23,5.23,0,0,0,5.12-4.7,4.25,4.25,0,0,0-3.8-4.67l-.49,0Z"/><path class="cls-1" d="M22.6,36.72h-.27a1.37,1.37,0,0,1-1.05-1.61l2.3-10.87a1.35,1.35,0,1,1,2.65.56h0l-2.3,10.87A1.35,1.35,0,0,1,22.6,36.72Z"/><path class="cls-1" d="M28.25,36.72H28a1.36,1.36,0,0,1-1-1.61l3.34-15.78a1.35,1.35,0,1,1,2.65.49l0,.08L29.57,35.67A1.35,1.35,0,0,1,28.25,36.72Z"/><path class="cls-1" d="M34.08,36.72H33.8a1.37,1.37,0,0,1-1.05-1.61l3.34-15.78a1.35,1.35,0,0,1,1.6-1,1.37,1.37,0,0,1,1.05,1.61L35.4,35.67A1.35,1.35,0,0,1,34.08,36.72Z"/><path class="cls-1" d="M66.66,36.73h-.25a1.34,1.34,0,0,1-1.08-1.11L64.1,28.1l-4.72,8a1.36,1.36,0,0,1-1.41.64,1.34,1.34,0,0,1-1.08-1.11L55,24.47A1.35,1.35,0,1,1,57.68,24v0l1.24,7.52,4.7-8a1.36,1.36,0,0,1,2.47.47l1.24,7.52,4.7-8a1.36,1.36,0,0,1,2.34,1.37l-6.6,11.19A1.32,1.32,0,0,1,66.66,36.73Z"/><path class="cls-1" d="M27.86,16.82H26.52V15.49a.49.49,0,0,0-1,0v1.34H24.21a.49.49,0,0,0,0,1h1.34v1.32a.49.49,0,1,0,1,0V17.81h1.34a.49.49,0,0,0,0-1Z"/><path class="cls-1" d="M21.21,9.19h-2v-2a.48.48,0,0,0-.48-.48h0a.49.49,0,0,0-.49.48v2h-2a.49.49,0,0,0-.49.49.48.48,0,0,0,.48.48h2v2a.49.49,0,0,0,.49.49.48.48,0,0,0,.48-.48h0v-2h2a.48.48,0,0,0,.49-.47h0A.49.49,0,0,0,21.21,9.19Z"/></svg>