<svg width="270" height="150" viewBox="0 0 270 150" fill="none" xmlns="http://www.w3.org/2000/svg">
<path d="M159.103 87.9208L147.445 50.1782H136.565L152.519 98.4766H165.457L181.456 50.1782H170.76L159.103 87.9208ZM135.103 66.9931C135.103 78.6467 126.873 83.8554 118.782 83.8554H109.09V98.4766H98.8516V50.1782H118.827C126.919 50.1782 135.103 55.3891 135.103 66.9931ZM124.452 66.9477C124.452 62.1042 121.709 59.18 117.183 59.18H109.09V74.8083H117.183C121.709 74.8083 124.452 71.8841 124.452 66.9477ZM264.2 66.9931C264.2 78.6467 255.97 83.8554 247.879 83.8554H238.189V98.4766H227.948V50.1782H247.879C255.97 50.1782 264.2 55.3891 264.2 66.9931ZM253.503 66.9477C253.503 62.1042 250.76 59.18 246.235 59.18H238.144V74.8083H246.235C250.76 74.8083 253.503 71.8841 253.503 66.9477ZM185.023 50.1782V59.5453H204.588L182.873 98.4766H221.136V89.1095H199.788L221.503 50.1782H185.023Z" fill="#0095DA"/>
<path d="M49.982 96.3283L55.6066 106.793H43.6294L38.0523 96.3283L43.9491 85.8655H55.7427L49.982 96.3283ZM60.1772 85.8655L55.3777 94.0893H74.943L50.3038 53.5154L19.1264 106.793H28.909L50.3492 69.9195L60.1772 85.8655ZM60.4515 47.7577C59.7646 46.8888 57.5247 42 50.2563 42C42.8518 42 40.4737 47.0725 39.6054 48.4428C38.6917 49.8131 5 106.793 5 106.793H14.599C14.599 106.793 45.0464 55.2509 46.9666 52.3266C48.9322 49.357 52.0858 50.4074 53.0449 51.916C53.9607 53.47 76.4053 89.9785 78.3709 93.1318C78.8288 93.8623 79.0578 95.278 78.2802 96.7412C77.5479 98.1568 76.1763 98.5221 75.2173 98.5221H55.2848L60.1318 106.839H76.0856C77.6408 106.839 82.166 106.199 85.6846 101.721C89.9377 96.2376 86.0518 89.6132 85.3196 88.4699C84.542 87.2812 61.0909 48.6265 60.4515 47.7577Z" fill="#0095DA"/>
</svg>
