<?xml version="1.0" encoding="utf-8"?>
<!-- Generator: Adobe Illustrator 22.0.1, SVG Export Plug-In . SVG Version: 6.00 Build 0)  -->
<svg version="1.1" id="Vrstva_1" xmlns="http://www.w3.org/2000/svg" xmlns:xlink="http://www.w3.org/1999/xlink" x="0px" y="0px"
	 viewBox="0 0 136.6 42.5" style="enable-background:new 0 0 136.6 42.5;" xml:space="preserve">
<style type="text/css">
	.st0{fill:#FFFFFF;}
</style>
<g>
	<polygon class="st0" points="96.4,2.3 98.9,2.3 98.9,25.5 96.4,25.5 96.4,27.7 108.6,27.7 108.6,25.5 106,25.5 106,2.3 108.6,2.3 
		108.6,0.2 96.4,0.2 	"/>
	<rect x="0.3" y="37.9" class="st0" width="50.5" height="0.8"/>
	<path class="st0" d="M55,42.4h1v-3.2c0.2,0.1,0.5,0.1,0.8,0.1c1,0,1.9-0.3,2.5-0.9c0.4-0.4,0.6-1,0.6-1.7c0-0.7-0.3-1.3-0.7-1.7
		c-0.5-0.4-1.2-0.7-2.3-0.7c-0.8,0-1.5,0.1-2,0.2V42.4 M56,35.2c0.2,0,0.5-0.1,1-0.1c1.1,0,1.9,0.5,1.9,1.6c0,1.1-0.8,1.7-2,1.7
		c-0.3,0-0.6,0-0.9-0.1V35.2z M66.7,34.2c-2.2,0-3.7,1.7-3.7,4.2c0,2.4,1.5,4.1,3.6,4.1c2.1,0,3.7-1.5,3.7-4.2
		C70.3,35.9,68.9,34.2,66.7,34.2 M66.7,35.1c1.7,0,2.6,1.7,2.6,3.3c0,1.8-0.9,3.3-2.6,3.3c-1.6,0-2.6-1.5-2.6-3.3
		C64.1,36.6,65,35.1,66.7,35.1 M75.5,39.6c0,1.6-0.6,2-1.5,2c-0.3,0-0.7-0.1-0.9-0.2L73,42.3c0.3,0.1,0.7,0.2,1.1,0.2
		c1.4,0,2.4-0.7,2.4-2.8v-5.4h-1V39.6z M80.4,42.4h1v-8.1h-1V42.4z M85,42c0.4,0.3,1.3,0.5,2.1,0.5c1.9,0,2.8-1.1,2.8-2.3
		c0-1.2-0.7-1.8-2.1-2.4c-1.1-0.4-1.6-0.8-1.6-1.6c0-0.5,0.4-1.2,1.5-1.2c0.7,0,1.3,0.2,1.5,0.4l0.3-0.8c-0.4-0.2-1-0.4-1.8-0.4
		c-1.6,0-2.6,0.9-2.6,2.2c0,1.1,0.8,1.8,2.1,2.3c1.1,0.4,1.5,0.8,1.5,1.6c0,0.8-0.6,1.4-1.7,1.4c-0.7,0-1.4-0.2-1.9-0.5L85,42z
		 M88,33.9l1.2-1.4h-0.9l-0.8,0.8h0l-0.8-0.8h-0.9l1.3,1.4H88z M95,42.4H96v-7.2h2.5v-0.9h-6v0.9H95V42.4z M95.9,33.9l1.2-1.4h-0.9
		l-0.8,0.8h0l-0.8-0.8h-0.9l1.3,1.4H95.9z M104.5,34.2c-2.1,0-3.7,1.7-3.7,4.2c0,2.4,1.5,4.1,3.6,4.1c2.1,0,3.7-1.5,3.7-4.2
		C108.1,35.9,106.7,34.2,104.5,34.2 M104.4,35.1c1.7,0,2.6,1.7,2.6,3.3c0,1.8-0.9,3.3-2.6,3.3c-1.6,0-2.6-1.5-2.6-3.3
		C101.8,36.6,102.7,35.1,104.4,35.1 M114.5,42.4l2.9-8.1h-1.1l-1.4,4c-0.4,1.1-0.7,2.1-0.9,3h0c-0.2-0.9-0.5-1.9-0.9-3l-1.3-4h-1.1
		l2.6,8.1H114.5z M121.4,42.4v-3.4c0-1.3,0-2.3-0.1-3.3l0,0c0.4,0.9,0.9,1.8,1.5,2.7l2.6,4.1h1.1v-8.1h-1v3.4c0,1.3,0,2.2,0.1,3.3
		l0,0c-0.4-0.8-0.8-1.7-1.4-2.6l-2.6-4.1h-1.1v8.1H121.4z M134.6,39.9l0.9,2.5h1.1l-2.7-8.1h-1.3l-2.7,8.1h1.1l0.8-2.5H134.6z
		 M131.9,39l0.8-2.3c0.2-0.5,0.3-1,0.4-1.5h0c0.1,0.5,0.2,0.9,0.4,1.5l0.8,2.3H131.9z"/>
	<polygon class="st0" points="44.2,27.7 44.2,19.6 42,19.6 42,23.3 40,25.5 32.9,25.5 32.9,2.3 35.5,2.3 35.5,0.2 23.2,0.2 
		23.2,2.3 25.7,2.3 25.7,25.5 23.2,25.5 23.2,27.7 	"/>
	<path class="st0" d="M56.6,5.6l4.1,12.2h-8L56.6,5.6z M52.3,27.7v-2.2h-2.1l1.8-5.6h9.4l1.9,5.6H61v2.2h11.1v-2.2h-1.4L61.9,0.2
		h-5.5l-8.3,25.4h-1.6v2.2H52.3z"/>
	<polygon class="st0" points="84.3,27.7 92.6,2.3 94.2,2.3 94.2,0.2 88.4,0.2 88.4,2.3 90.4,2.3 84.1,22.3 77.4,2.3 79.7,2.3 
		79.7,0.2 68.5,0.2 68.5,2.3 69.9,2.3 78.8,27.7 	"/>
	<path class="st0" d="M121,5.6l4.1,12.2h-8L121,5.6z M116.8,27.7v-2.2h-2.1l1.8-5.6h9.4l1.9,5.6h-2.3v2.2h11.1v-2.2h-1.4l-8.9-25.4
		h-5.5l-8.3,25.4h-1.6v2.2H116.8z"/>
	<path class="st0" d="M16.8,12c-2.4-1.1-7.4-3-9.1-4C6.8,7.4,6.2,6.5,6.2,5.4c0-0.6,0.2-2.3,2.1-2.9c3.4-1.2,7.8,1.2,8.6,2.3
		c0,1,0,2.9,0,2.9h2.3V0.2h-2.3v1.2c0,0-0.1,0.1-0.2,0.2C11.5-1.5,0-0.3,0,7.7c0,2.3,0.7,4,1.7,5.3c0.7,0.9,1.9,2,4.7,3.1
		c3,1.1,7.7,2.6,7.5,5.8c0,2.1-1.9,3.8-4.4,4c-0.4,0-0.8,0-1.1-0.1c-3.1-0.3-5.8-2.8-5.8-2.8v-3.3H0.3v8.1h2.3v-1.8
		c0,0,4,2.7,9.8,1.9c2.2-0.3,5.1-1.3,6.7-3.4C21.7,21,22.3,14.5,16.8,12"/>
</g>
</svg>
