<svg id="Vrstva_1" data-name="Vrstva 1" xmlns="http://www.w3.org/2000/svg" viewBox="0 0 79 44"><defs><style>.cls-1{fill:#b13b15;}</style></defs><title>slavia</title><g id="logo-_-Slavia" data-name="logo-/-Slavia"><path id="Slavia" class="cls-1" d="M59.79,29.23a2,2,0,0,1,2.05,2.2,2.08,2.08,0,0,1-2.12,2.29,2,2,0,0,1-2.05-2.21A2.11,2.11,0,0,1,59.79,29.23Zm-21.43,0a2,2,0,0,1,2.05,2.2,2.08,2.08,0,0,1-2.12,2.29,2,2,0,0,1-2.05-2.21A2.11,2.11,0,0,1,38.36,29.23Zm12,0a2.16,2.16,0,0,1,1,.21h0l-.16.46a1.89,1.89,0,0,0-.87-.21c-.62,0-.86.36-.86.65s.28.61.91.84,1.17.64,1.17,1.28-.52,1.26-1.6,1.26a2.45,2.45,0,0,1-1.17-.28h0l.15-.47a2.16,2.16,0,0,0,1.06.28c.6,0,1-.3,1-.74s-.24-.64-.86-.87-1.21-.62-1.21-1.23S49.43,29.23,50.31,29.23Zm-6.39.07v2.91c0,1.16-.6,1.51-1.38,1.51a2,2,0,0,1-.63-.1h0l.09-.46a1.47,1.47,0,0,0,.5.08c.53,0,.84-.23.84-1.08h0V29.3Zm25.56,0,1.46,2.2a12.21,12.21,0,0,1,.82,1.41h0c-.05-.58-.07-1.11-.07-1.79h0V29.3h.56v4.35h-.6l-1.45-2.21A13.7,13.7,0,0,1,69.37,30h0c0,.55,0,1.07,0,1.8h0v1.86h-.56V29.3Zm-36.67,0a1.94,1.94,0,0,1,1.28.36,1.15,1.15,0,0,1,.4.91,1.25,1.25,0,0,1-.35.93,2,2,0,0,1-1.4.48,2.14,2.14,0,0,1-.47,0h0v1.74h-.59v-4.3A7.16,7.16,0,0,1,32.81,29.27Zm13.91,0v4.35h-.59V29.3Zm9.68,0v.48H55v3.88h-.6V29.78H53V29.3Zm20,0L78,33.66h-.63l-.49-1.37H75.26l-.47,1.37h-.61l1.55-4.35ZM64,29.3l.71,2.14c.2.59.37,1.12.49,1.63h0c.13-.5.32-1.05.52-1.62h0l.77-2.15h.63l-1.63,4.35h-.65L63.35,29.3Zm-4.22.39c-1,0-1.46.86-1.46,1.82a1.58,1.58,0,0,0,1.46,1.76c.94,0,1.46-.82,1.46-1.81A1.58,1.58,0,0,0,59.77,29.69Zm-21.43,0c-1,0-1.46.86-1.46,1.82a1.58,1.58,0,0,0,1.46,1.76c.94,0,1.46-.82,1.46-1.81A1.58,1.58,0,0,0,38.33,29.69Zm-9.06,1.63v.6H1v-.6Zm46.8-1.52h0c-.07.26-.14.52-.23.79h0l-.45,1.26h1.38l-.45-1.25c-.1-.28-.17-.54-.24-.79Zm-43.25-.08a2.58,2.58,0,0,0-.56,0h0v1.69a2.07,2.07,0,0,0,.49,0c.71,0,1.15-.33,1.15-.93S33.48,29.72,32.83,29.72Zm21.44-1.38.43.45h0l.43-.45h.49l-.7.74h-.45l-.71-.74Zm-4.5,0,.43.45h0l.43-.45h.49l-.7.74H50l-.71-.74Zm22.46-18,5,14.41H78v1.23H71.75V24.68H73L72,21.49H66.69l-1,3.19h1.16v1.23H63.56V24.68h.89l4.67-14.41Zm-9.87,0v1.22H61V24.67h1.4v1.24H55.74V24.67h1.35V11.49H55.74V10.27Zm-16.61,0v1.22H44.46l3.8,11.32,3.55-11.32H50.64V10.27h3.29v1.22H53L48.37,25.91h-3.1l-5-14.42H39.5V10.27Zm-9.62,0,5,14.4h.78v1.24H35.65V24.67h1.29l-1.07-3.19H30.6l-1,3.19h1.16v1.24H27.47V24.67h.89L33,10.27Zm-14.87,0v1.22H19.77V24.68h4.09L25,23.43V21.29h1.23v4.62h-12V24.68h1.43V11.49H14.23V10.27ZM1,14.57c0-4.44,6.59-5.16,9.51-3.43l.14-.13h0v-.65H12v4.22H10.64s0-.8,0-1.37v-.26a5.4,5.4,0,0,0-4.92-1.29,1.68,1.68,0,0,0-.29,3.09c1,.55,3.81,1.65,5.19,2.25,3.15,1.42,2.78,5,1.29,6.93a6,6,0,0,1-3.84,1.9,8.84,8.84,0,0,1-5.61-1.05h0v1H1.15V21.24H2.47v1.86a6.77,6.77,0,0,0,3.33,1.59,3.2,3.2,0,0,0,.64,0A2.46,2.46,0,0,0,9,22.5c.08-1.78-2.6-2.64-4.31-3.26A5.46,5.46,0,0,1,2,17.53,4.66,4.66,0,0,1,1,14.57Zm68.24-1.2-2.16,6.9h4.48Zm-36.09,0L31,20.26h4.48Z"/></g></svg>