<svg viewBox="0 0 90 50" fill="none" xmlns="http://www.w3.org/2000/svg">
<path d="M13.4461 32.8027C12.932 32.9005 12.4317 32.9451 11.9644 32.9451C10.2549 32.9418 8.64553 32.1403 7.31613 31.118C5.72192 29.8901 4.55642 28.1834 4.26081 26.3253C4.22261 26.1338 4.20276 25.9395 4.17673 25.6848L4.16625 25.5826C4.04827 24.3097 4.23097 22.7089 5.12334 21.1786C5.89635 19.8547 7.0467 18.7079 8.94347 17.9148C9.73484 17.5838 11.4337 17.2107 13.4007 17.7344C15.4677 18.3036 17.2741 19.5857 18.4363 21.2699C18.4363 21.2699 16.6534 18.9532 13.6041 18.6869C13.4664 18.6758 13.3287 18.6686 13.19 18.6663C11.6835 18.636 10.2429 19.1547 9.04263 20.0172C8.27463 20.5621 7.60074 21.2484 7.07929 22.0383L7.07457 22.0454C7.04124 22.0951 6.95211 22.228 6.83601 22.4339L6.79927 22.4984C6.77403 22.5447 6.7474 22.5948 6.72032 22.6475C6.35035 23.3558 5.83393 24.6232 5.81282 26.2248C5.78665 28.2868 6.71114 29.7735 7.05771 30.2748C7.0669 30.2886 7.92671 30.8692 9.22895 31.1176C9.75687 31.2177 10.254 31.2352 10.6777 31.2236C11.0348 31.511 11.4121 31.7745 11.8024 32.0017C12.4344 32.3689 12.9797 32.6201 13.4461 32.8027Z" fill="#005CA9"/>
<path d="M31.1016 20.3746H33.5033V27.453C33.5033 29.7904 34.9001 31.1928 36.7348 31.1928C38.5884 31.1928 39.9647 29.7905 39.9647 27.4535V20.3746H42.3668V27.9611C42.3668 30.9072 40.1579 33.4246 36.7345 33.4246C33.3105 33.4246 31.102 30.9072 31.102 27.9611L31.1016 20.3746Z" fill="#005CA9"/>
<path d="M55.6981 33.1505V20.3746H53.3226V28.3463L46.3507 20.3746H45.0535V33.1285H47.4285V25.1908L54.3852 33.1505H55.6981Z" fill="#005CA9"/>
<path d="M58.5404 33.1289H61.0059V20.3746H58.5404V33.1289Z" fill="#005CA9"/>
<path fill-rule="evenodd" clip-rule="evenodd" d="M76.8216 26.7524C76.8216 23.003 73.7534 19.9647 69.9673 19.9647C66.1825 19.9647 63.113 23.003 63.113 26.7524C63.113 30.4995 66.1825 33.5397 69.9673 33.5397C71.4077 33.5397 72.7431 33.098 73.8461 32.3466L74.9648 33.4648L76.5273 31.9018L75.4509 30.8245C76.3107 29.6898 76.8216 28.28 76.8216 26.7524ZM69.9673 31.408C67.5091 31.408 65.516 29.3235 65.516 26.7524C65.516 24.1794 67.5091 22.095 69.9673 22.095C72.4254 22.095 74.4181 24.179 74.4181 26.7524C74.4181 27.6305 74.1849 28.4527 73.7805 29.1545L72.307 27.6801L70.7435 29.2426L72.2505 30.7501C71.5817 31.1678 70.8018 31.408 69.9673 31.408Z" fill="#005CA9"/>
<path fill-rule="evenodd" clip-rule="evenodd" d="M86.9344 33.1285H89.5641L84.1318 20.3746H82.4778L76.9019 33.1285H79.4612L80.4647 30.7268H85.9626L86.9344 33.1285ZM81.3402 28.6294L83.2562 24.0423L85.1131 28.6294H81.3402Z" fill="#005CA9"/>
<path d="M8.72534 32.944H0L1.0007 31.162H6.12584C6.35077 31.3695 6.58488 31.5672 6.82679 31.7532C7.40148 32.1956 8.03866 32.6093 8.72534 32.944Z" fill="#005CA9"/>
<path d="M10.6469 20.007C10.3651 20.2432 8.56287 23.748 10.78 26.8314C11.4052 27.7013 12.3182 28.7612 13.3892 29.3824C14.4051 29.9719 15.1134 30.16 15.5923 30.2871C15.6384 30.2993 15.6823 30.311 15.7243 30.3224C16.5653 30.5515 17.868 30.6455 19.5462 30.7365C20.905 30.8099 23.6877 30.826 24.1734 30.8246L24.6916 30.8269L25.8823 33.0964C25.8823 33.0964 21.8401 33.1147 19.9608 33.0128C17.8474 32.899 16.2058 32.7796 15.1464 32.4918C15.0946 32.4777 15.0403 32.4633 14.9835 32.4482C14.3803 32.2882 13.4872 32.0512 12.2044 31.3075C10.8562 30.5253 9.47361 29.1564 8.75566 28.0139C7.02602 25.2579 7.46029 23.4084 7.6875 22.5004C8.18092 21.816 8.81858 21.159 9.50669 20.6716C9.95274 20.3505 10.2485 20.2042 10.5429 20.0585C10.5774 20.0415 10.6122 20.0242 10.6469 20.007Z" fill="#005CA9"/>
<path d="M19.5879 25.3888C19.5136 23.4852 17.8951 21.3906 16.7705 20.7227C17.452 21.9167 18.1158 23.549 17.4433 25.9498C16.9558 27.6706 15.9951 28.7912 15.3492 29.3856C15.5208 29.4393 15.6723 29.4792 15.8048 29.5141C15.8503 29.5261 15.8934 29.5374 15.9345 29.5486C16.4532 29.6896 17.2005 29.7777 18.1866 29.8483C18.7952 28.9808 19.7073 27.2066 19.5879 25.3888Z" fill="#005CA9"/>
</svg>
