<svg xmlns="http://www.w3.org/2000/svg" width="220" height="55" viewBox="0 0 220 55">
    <g fill="none" fill-rule="evenodd">
        <g>
            <g>
                <g fill="#005CA9">
                    <path d="M67.754 6.32h5.232v15.42c0 5.092 3.043 8.147 7.04 8.147 4.038 0 7.036-3.055 7.036-8.146V6.32h5.233v16.527c0 6.418-4.812 11.902-12.27 11.902-7.459 0-12.27-5.484-12.27-11.902V6.32M121.337 34.152L121.337 6.32 116.162 6.32 116.162 23.686 100.974 6.32 98.148 6.32 98.148 34.104 103.322 34.104 103.322 16.812 118.477 34.152 121.337 34.152M127.529 34.105L132.9 34.105 132.9 6.32 127.529 6.32zM152.422 30.356c-5.355 0-9.697-4.541-9.697-10.142 0-5.605 4.342-10.146 9.697-10.146 5.355 0 9.696 4.54 9.696 10.146 0 1.913-.508 3.704-1.389 5.233l-3.21-3.212-3.406 3.404 3.283 3.284c-1.457.91-3.156 1.433-4.974 1.433zm14.932-10.142c0-8.168-6.684-14.787-14.932-14.787-8.245 0-14.932 6.619-14.932 14.787 0 8.163 6.687 14.786 14.932 14.786 3.138 0 6.047-.962 8.45-2.599l2.437 2.436 3.404-3.405-2.345-2.347c1.873-2.472 2.986-5.543 2.986-8.871zM177.197 24.303l4.174-9.993 4.046 9.993h-8.22zm12.187 9.801h5.73L183.279 6.32h-3.603l-12.147 27.784h5.576l2.186-5.232h11.977l2.117 5.232zM19.008 33.702H0l2.18-3.882h11.165c.49.452 1 .883 1.527 1.288 1.252.964 2.64 1.865 4.136 2.594M23.194 5.519c-.614.515-4.54 8.15.29 14.867 1.362 1.895 3.351 4.204 5.684 5.557 2.426 1.408 4.047 1.765 5.087 2.048 1.832.499 4.67.704 8.326.902 2.96.16 9.022.195 10.08.192l1.129.005 2.594 4.944s-8.806.04-12.9-.182c-4.604-.248-8.18-.508-10.488-1.135-1.31-.356-3.351-.807-6.409-2.58-2.937-1.704-5.949-4.686-7.513-7.175-3.768-6.004-2.822-10.033-2.327-12.011 1.075-1.491 2.464-2.922 3.963-3.984 1.086-.782 1.763-1.088 2.484-1.448" transform="translate(-140 -10) translate(140 10) translate(12.257 8.435)"/>
                    <path d="M29.292 33.394c-1.12.213-2.21.31-3.228.31-3.724-.007-7.23-1.753-10.126-3.98-3.473-2.675-6.012-6.393-6.656-10.441-.094-.471-.137-.95-.206-1.618-.257-2.773.141-6.26 2.085-9.594 1.684-2.884 4.19-5.382 8.322-7.11 1.724-.721 5.425-1.534 9.71-.393 4.503 1.24 8.438 4.033 10.97 7.702 0 0-3.884-5.047-10.527-5.627-.3-.024-.6-.04-.902-.045-3.282-.066-6.42 1.064-9.035 2.943-1.673 1.187-3.141 2.682-4.277 4.403-.063.094-.264.39-.53.862l-.08.14c-.055.101-.113.21-.172.325-.806 1.543-1.931 4.304-1.977 7.793-.057 4.492 1.957 7.731 2.712 8.823.02.03 1.893 1.295 4.73 1.836 1.15.218 2.233.256 3.156.231.778.626 1.6 1.2 2.45 1.695 1.377.8 2.564 1.347 3.58 1.745" transform="translate(-140 -10) translate(140 10) translate(12.257 8.435)"/>
                    <path d="M36.534 7.078c2.45 1.455 5.976 6.018 6.138 10.165.26 3.96-1.727 7.825-3.053 9.715-2.148-.154-3.776-.346-4.906-.653-.35-.095-.773-.198-1.275-.355 1.407-1.295 3.5-3.736 4.562-7.485 1.465-5.23.019-8.786-1.466-11.387" transform="translate(-140 -10) translate(140 10) translate(12.257 8.435)"/>
                </g>
            </g>
        </g>
    </g>
</svg>
